<svg width="923" height="32" viewBox="0 0 923 32" fill="none" xmlns="http://www.w3.org/2000/svg">
<path d="M21.5568 9.875H16.5795C16.4886 9.23106 16.303 8.65909 16.0227 8.15909C15.7424 7.65151 15.3826 7.2197 14.9432 6.86364C14.5038 6.50757 13.9962 6.23485 13.4205 6.04545C12.8523 5.85606 12.2348 5.76136 11.5682 5.76136C10.3636 5.76136 9.31439 6.06061 8.42045 6.65909C7.52652 7.25 6.83333 8.11364 6.34091 9.25C5.84849 10.3788 5.60227 11.75 5.60227 13.3636C5.60227 15.0227 5.84849 16.4167 6.34091 17.5455C6.84091 18.6742 7.53788 19.5265 8.43182 20.1023C9.32576 20.678 10.3598 20.9659 11.5341 20.9659C12.1932 20.9659 12.803 20.8788 13.3636 20.7045C13.9318 20.5303 14.4356 20.2765 14.875 19.9432C15.3144 19.6023 15.678 19.1894 15.9659 18.7045C16.2614 18.2197 16.4659 17.6667 16.5795 17.0455L21.5568 17.0682C21.428 18.1364 21.1061 19.1667 20.5909 20.1591C20.0833 21.1439 19.3977 22.0265 18.5341 22.8068C17.678 23.5795 16.6553 24.1932 15.4659 24.6477C14.2841 25.0947 12.947 25.3182 11.4545 25.3182C9.37879 25.3182 7.52273 24.8485 5.88636 23.9091C4.25758 22.9697 2.9697 21.6098 2.02273 19.8295C1.08333 18.0492 0.613636 15.8939 0.613636 13.3636C0.613636 10.8258 1.09091 8.66667 2.04545 6.88636C3 5.10606 4.29545 3.75 5.93182 2.81818C7.56818 1.87879 9.40909 1.40909 11.4545 1.40909C12.803 1.40909 14.053 1.59848 15.2045 1.97727C16.3636 2.35606 17.3902 2.90909 18.2841 3.63636C19.178 4.35606 19.9053 5.23864 20.4659 6.28409C21.0341 7.32954 21.3977 8.52651 21.5568 9.875ZM32.8807 25.3409C31.1155 25.3409 29.589 24.9659 28.3011 24.2159C27.0208 23.4583 26.0322 22.4053 25.3352 21.0568C24.6383 19.7008 24.2898 18.1288 24.2898 16.3409C24.2898 14.5379 24.6383 12.9621 25.3352 11.6136C26.0322 10.2576 27.0208 9.20454 28.3011 8.45454C29.589 7.69697 31.1155 7.31818 32.8807 7.31818C34.6458 7.31818 36.1686 7.69697 37.4489 8.45454C38.7367 9.20454 39.7292 10.2576 40.4261 11.6136C41.1231 12.9621 41.4716 14.5379 41.4716 16.3409C41.4716 18.1288 41.1231 19.7008 40.4261 21.0568C39.7292 22.4053 38.7367 23.4583 37.4489 24.2159C36.1686 24.9659 34.6458 25.3409 32.8807 25.3409ZM32.9034 21.5909C33.7064 21.5909 34.3769 21.3636 34.9148 20.9091C35.4527 20.447 35.858 19.8182 36.1307 19.0227C36.411 18.2273 36.5511 17.322 36.5511 16.3068C36.5511 15.2917 36.411 14.3864 36.1307 13.5909C35.858 12.7955 35.4527 12.1667 34.9148 11.7045C34.3769 11.2424 33.7064 11.0114 32.9034 11.0114C32.0928 11.0114 31.411 11.2424 30.858 11.7045C30.3125 12.1667 29.8996 12.7955 29.6193 13.5909C29.3466 14.3864 29.2102 15.2917 29.2102 16.3068C29.2102 17.322 29.3466 18.2273 29.6193 19.0227C29.8996 19.8182 30.3125 20.447 30.858 20.9091C31.411 21.3636 32.0928 21.5909 32.9034 21.5909ZM44.6193 25V7.54545H49.233V10.625H49.4375C49.8011 9.60227 50.4072 8.79545 51.2557 8.20454C52.1042 7.61364 53.1193 7.31818 54.3011 7.31818C55.4981 7.31818 56.517 7.61742 57.358 8.21591C58.1989 8.80682 58.7595 9.60985 59.0398 10.625H59.2216C59.5777 9.625 60.2216 8.82576 61.1534 8.22727C62.0928 7.62121 63.2027 7.31818 64.483 7.31818C66.1117 7.31818 67.4337 7.83712 68.4489 8.875C69.4716 9.9053 69.983 11.3674 69.983 13.2614V25H65.1534V14.2159C65.1534 13.2462 64.8958 12.5189 64.3807 12.0341C63.8655 11.5492 63.2216 11.3068 62.4489 11.3068C61.5701 11.3068 60.8845 11.5871 60.392 12.1477C59.8996 12.7008 59.6534 13.4318 59.6534 14.3409V25H54.9602V14.1136C54.9602 13.2576 54.714 12.5758 54.2216 12.0682C53.7367 11.5606 53.0966 11.3068 52.3011 11.3068C51.7633 11.3068 51.2784 11.4432 50.8466 11.7159C50.4223 11.9811 50.0852 12.3561 49.8352 12.8409C49.5852 13.3182 49.4602 13.8788 49.4602 14.5227V25H44.6193ZM81.7614 25.3409C79.9659 25.3409 78.4205 24.9773 77.125 24.25C75.8371 23.5152 74.8447 22.4773 74.1477 21.1364C73.4508 19.7879 73.1023 18.1932 73.1023 16.3523C73.1023 14.5568 73.4508 12.9811 74.1477 11.625C74.8447 10.2689 75.8258 9.21212 77.0909 8.45454C78.3636 7.69697 79.8561 7.31818 81.5682 7.31818C82.7197 7.31818 83.7917 7.50379 84.7841 7.875C85.7841 8.23864 86.6553 8.78788 87.3977 9.52273C88.1477 10.2576 88.7311 11.1818 89.1477 12.2955C89.5644 13.4015 89.7727 14.697 89.7727 16.1818V17.5114H75.0341V14.5114H85.2159C85.2159 13.8144 85.0644 13.197 84.7614 12.6591C84.4583 12.1212 84.0379 11.7008 83.5 11.3977C82.9697 11.0871 82.3523 10.9318 81.6477 10.9318C80.9129 10.9318 80.2614 11.1023 79.6932 11.4432C79.1326 11.7765 78.6932 12.2273 78.375 12.7955C78.0568 13.3561 77.8939 13.9811 77.8864 14.6705V17.5227C77.8864 18.3864 78.0455 19.1326 78.3636 19.7614C78.6894 20.3902 79.1477 20.875 79.7386 21.2159C80.3295 21.5568 81.0303 21.7273 81.8409 21.7273C82.3788 21.7273 82.8712 21.6515 83.3182 21.5C83.7652 21.3485 84.1477 21.1212 84.4659 20.8182C84.7841 20.5152 85.0265 20.1439 85.1932 19.7045L89.6705 20C89.4432 21.0758 88.9773 22.0152 88.2727 22.8182C87.5758 23.6136 86.6742 24.2348 85.5682 24.6818C84.4697 25.1212 83.2008 25.3409 81.7614 25.3409ZM100.818 25.3409C99.0303 25.3409 97.4924 24.9621 96.2045 24.2045C94.9242 23.4394 93.9394 22.3788 93.25 21.0227C92.5682 19.6667 92.2273 18.1061 92.2273 16.3409C92.2273 14.553 92.572 12.9848 93.2614 11.6364C93.9583 10.2803 94.947 9.22348 96.2273 8.46591C97.5076 7.70076 99.0303 7.31818 100.795 7.31818C102.318 7.31818 103.652 7.5947 104.795 8.14773C105.939 8.70076 106.845 9.47727 107.511 10.4773C108.178 11.4773 108.545 12.6515 108.614 14H104.045C103.917 13.1288 103.576 12.428 103.023 11.8977C102.477 11.3598 101.761 11.0909 100.875 11.0909C100.125 11.0909 99.4697 11.2955 98.9091 11.7045C98.3561 12.1061 97.9242 12.6932 97.6136 13.4659C97.303 14.2386 97.1477 15.1742 97.1477 16.2727C97.1477 17.3864 97.2992 18.3333 97.6023 19.1136C97.9129 19.8939 98.3485 20.4886 98.9091 20.8977C99.4697 21.3068 100.125 21.5114 100.875 21.5114C101.428 21.5114 101.924 21.3977 102.364 21.1705C102.811 20.9432 103.178 20.6136 103.466 20.1818C103.761 19.7424 103.955 19.2159 104.045 18.6023H108.614C108.538 19.9356 108.174 21.1098 107.523 22.125C106.879 23.1326 105.989 23.9205 104.852 24.4886C103.716 25.0568 102.371 25.3409 100.818 25.3409ZM119.668 25.3409C117.872 25.3409 116.327 24.9773 115.031 24.25C113.743 23.5152 112.751 22.4773 112.054 21.1364C111.357 19.7879 111.009 18.1932 111.009 16.3523C111.009 14.5568 111.357 12.9811 112.054 11.625C112.751 10.2689 113.732 9.21212 114.997 8.45454C116.27 7.69697 117.762 7.31818 119.474 7.31818C120.626 7.31818 121.698 7.50379 122.69 7.875C123.69 8.23864 124.562 8.78788 125.304 9.52273C126.054 10.2576 126.637 11.1818 127.054 12.2955C127.471 13.4015 127.679 14.697 127.679 16.1818V17.5114H112.94V14.5114H123.122C123.122 13.8144 122.971 13.197 122.668 12.6591C122.365 12.1212 121.944 11.7008 121.406 11.3977C120.876 11.0871 120.259 10.9318 119.554 10.9318C118.819 10.9318 118.168 11.1023 117.599 11.4432C117.039 11.7765 116.599 12.2273 116.281 12.7955C115.963 13.3561 115.8 13.9811 115.793 14.6705V17.5227C115.793 18.3864 115.952 19.1326 116.27 19.7614C116.596 20.3902 117.054 20.875 117.645 21.2159C118.236 21.5568 118.937 21.7273 119.747 21.7273C120.285 21.7273 120.777 21.6515 121.224 21.5C121.671 21.3485 122.054 21.1212 122.372 20.8182C122.69 20.5152 122.933 20.1439 123.099 19.7045L127.577 20C127.349 21.0758 126.884 22.0152 126.179 22.8182C125.482 23.6136 124.58 24.2348 123.474 24.6818C122.376 25.1212 121.107 25.3409 119.668 25.3409ZM143.222 25.3295C142.108 25.3295 141.116 25.1364 140.244 24.75C139.373 24.3561 138.684 23.7765 138.176 23.0114C137.676 22.2386 137.426 21.2765 137.426 20.125C137.426 19.1553 137.604 18.3409 137.96 17.6818C138.316 17.0227 138.801 16.4924 139.415 16.0909C140.028 15.6894 140.725 15.3864 141.506 15.1818C142.294 14.9773 143.119 14.8333 143.983 14.75C144.998 14.6439 145.816 14.5455 146.438 14.4545C147.059 14.3561 147.509 14.2121 147.79 14.0227C148.07 13.8333 148.21 13.553 148.21 13.1818V13.1136C148.21 12.3939 147.983 11.8371 147.528 11.4432C147.081 11.0492 146.445 10.8523 145.619 10.8523C144.748 10.8523 144.055 11.0455 143.54 11.4318C143.025 11.8106 142.684 12.2879 142.517 12.8636L138.04 12.5C138.267 11.4394 138.714 10.5227 139.381 9.75C140.047 8.9697 140.907 8.37121 141.96 7.95454C143.021 7.5303 144.248 7.31818 145.642 7.31818C146.612 7.31818 147.54 7.43182 148.426 7.65909C149.32 7.88636 150.112 8.23864 150.801 8.71591C151.498 9.19318 152.047 9.80682 152.449 10.5568C152.85 11.2992 153.051 12.1894 153.051 13.2273V25H148.46V22.5795H148.324C148.044 23.125 147.669 23.6061 147.199 24.0227C146.729 24.4318 146.165 24.7538 145.506 24.9886C144.847 25.2159 144.085 25.3295 143.222 25.3295ZM144.608 21.9886C145.32 21.9886 145.949 21.8485 146.494 21.5682C147.04 21.2803 147.468 20.8939 147.778 20.4091C148.089 19.9242 148.244 19.375 148.244 18.7614V16.9091C148.093 17.0076 147.884 17.0985 147.619 17.1818C147.362 17.2576 147.07 17.3295 146.744 17.3977C146.419 17.4583 146.093 17.5152 145.767 17.5682C145.441 17.6136 145.146 17.6553 144.881 17.6932C144.313 17.7765 143.816 17.9091 143.392 18.0909C142.968 18.2727 142.638 18.5189 142.403 18.8295C142.169 19.1326 142.051 19.5114 142.051 19.9659C142.051 20.625 142.29 21.1288 142.767 21.4773C143.252 21.8182 143.866 21.9886 144.608 21.9886ZM164.67 31.9091C163.102 31.9091 161.758 31.6932 160.636 31.2614C159.523 30.8371 158.636 30.2576 157.977 29.5227C157.318 28.7879 156.89 27.9621 156.693 27.0455L161.17 26.4432C161.307 26.7917 161.523 27.1174 161.818 27.4205C162.114 27.7235 162.504 27.9659 162.989 28.1477C163.481 28.3371 164.08 28.4318 164.784 28.4318C165.837 28.4318 166.705 28.1742 167.386 27.6591C168.076 27.1515 168.42 26.2992 168.42 25.1023V21.9091H168.216C168.004 22.3939 167.686 22.8523 167.261 23.2841C166.837 23.7159 166.292 24.0682 165.625 24.3409C164.958 24.6136 164.163 24.75 163.239 24.75C161.928 24.75 160.735 24.447 159.659 23.8409C158.591 23.2273 157.739 22.2917 157.102 21.0341C156.473 19.7689 156.159 18.1705 156.159 16.2386C156.159 14.2614 156.481 12.6098 157.125 11.2841C157.769 9.95833 158.625 8.96591 159.693 8.30682C160.769 7.64773 161.947 7.31818 163.227 7.31818C164.205 7.31818 165.023 7.48485 165.682 7.81818C166.341 8.14394 166.871 8.55303 167.273 9.04545C167.682 9.5303 167.996 10.0076 168.216 10.4773H168.398V7.54545H173.205V25.1705C173.205 26.6553 172.841 27.8977 172.114 28.8977C171.386 29.8977 170.379 30.6477 169.091 31.1477C167.811 31.6553 166.337 31.9091 164.67 31.9091ZM164.773 21.1136C165.553 21.1136 166.212 20.9205 166.75 20.5341C167.295 20.1402 167.712 19.5795 168 18.8523C168.295 18.1174 168.443 17.2386 168.443 16.2159C168.443 15.1932 168.299 14.3068 168.011 13.5568C167.723 12.7992 167.307 12.2121 166.761 11.7955C166.216 11.3788 165.553 11.1705 164.773 11.1705C163.977 11.1705 163.307 11.3864 162.761 11.8182C162.216 12.2424 161.803 12.8333 161.523 13.5909C161.242 14.3485 161.102 15.2235 161.102 16.2159C161.102 17.2235 161.242 18.0947 161.523 18.8295C161.811 19.5568 162.223 20.1212 162.761 20.5227C163.307 20.9167 163.977 21.1136 164.773 21.1136ZM184.943 25.3409C183.178 25.3409 181.652 24.9659 180.364 24.2159C179.083 23.4583 178.095 22.4053 177.398 21.0568C176.701 19.7008 176.352 18.1288 176.352 16.3409C176.352 14.5379 176.701 12.9621 177.398 11.6136C178.095 10.2576 179.083 9.20454 180.364 8.45454C181.652 7.69697 183.178 7.31818 184.943 7.31818C186.708 7.31818 188.231 7.69697 189.511 8.45454C190.799 9.20454 191.792 10.2576 192.489 11.6136C193.186 12.9621 193.534 14.5379 193.534 16.3409C193.534 18.1288 193.186 19.7008 192.489 21.0568C191.792 22.4053 190.799 23.4583 189.511 24.2159C188.231 24.9659 186.708 25.3409 184.943 25.3409ZM184.966 21.5909C185.769 21.5909 186.439 21.3636 186.977 20.9091C187.515 20.447 187.92 19.8182 188.193 19.0227C188.473 18.2273 188.614 17.322 188.614 16.3068C188.614 15.2917 188.473 14.3864 188.193 13.5909C187.92 12.7955 187.515 12.1667 186.977 11.7045C186.439 11.2424 185.769 11.0114 184.966 11.0114C184.155 11.0114 183.473 11.2424 182.92 11.7045C182.375 12.1667 181.962 12.7955 181.682 13.5909C181.409 14.3864 181.273 15.2917 181.273 16.3068C181.273 17.322 181.409 18.2273 181.682 19.0227C181.962 19.8182 182.375 20.447 182.92 20.9091C183.473 21.3636 184.155 21.5909 184.966 21.5909ZM196.682 25V7.54545H201.375V10.5909H201.557C201.875 9.50758 202.409 8.68939 203.159 8.13636C203.909 7.57576 204.773 7.29545 205.75 7.29545C205.992 7.29545 206.254 7.31061 206.534 7.34091C206.814 7.37121 207.061 7.41288 207.273 7.46591V11.7614C207.045 11.6932 206.731 11.6326 206.33 11.5795C205.928 11.5265 205.561 11.5 205.227 11.5C204.515 11.5 203.879 11.6553 203.318 11.9659C202.765 12.2689 202.326 12.6932 202 13.2386C201.682 13.7841 201.523 14.4129 201.523 15.125V25H196.682ZM214.253 25.3295C213.139 25.3295 212.147 25.1364 211.276 24.75C210.404 24.3561 209.715 23.7765 209.207 23.0114C208.707 22.2386 208.457 21.2765 208.457 20.125C208.457 19.1553 208.635 18.3409 208.991 17.6818C209.348 17.0227 209.832 16.4924 210.446 16.0909C211.06 15.6894 211.757 15.3864 212.537 15.1818C213.325 14.9773 214.151 14.8333 215.014 14.75C216.029 14.6439 216.848 14.5455 217.469 14.4545C218.09 14.3561 218.541 14.2121 218.821 14.0227C219.101 13.8333 219.241 13.553 219.241 13.1818V13.1136C219.241 12.3939 219.014 11.8371 218.56 11.4432C218.113 11.0492 217.476 10.8523 216.651 10.8523C215.779 10.8523 215.086 11.0455 214.571 11.4318C214.056 11.8106 213.715 12.2879 213.548 12.8636L209.071 12.5C209.298 11.4394 209.745 10.5227 210.412 9.75C211.079 8.9697 211.938 8.37121 212.991 7.95454C214.052 7.5303 215.279 7.31818 216.673 7.31818C217.643 7.31818 218.571 7.43182 219.457 7.65909C220.351 7.88636 221.143 8.23864 221.832 8.71591C222.529 9.19318 223.079 9.80682 223.48 10.5568C223.882 11.2992 224.082 12.1894 224.082 13.2273V25H219.491V22.5795H219.355C219.075 23.125 218.7 23.6061 218.23 24.0227C217.76 24.4318 217.196 24.7538 216.537 24.9886C215.878 25.2159 215.116 25.3295 214.253 25.3295ZM215.639 21.9886C216.351 21.9886 216.98 21.8485 217.526 21.5682C218.071 21.2803 218.499 20.8939 218.81 20.4091C219.12 19.9242 219.276 19.375 219.276 18.7614V16.9091C219.124 17.0076 218.916 17.0985 218.651 17.1818C218.393 17.2576 218.101 17.3295 217.776 17.3977C217.45 17.4583 217.124 17.5152 216.798 17.5682C216.473 17.6136 216.177 17.6553 215.912 17.6932C215.344 17.7765 214.848 17.9091 214.423 18.0909C213.999 18.2727 213.67 18.5189 213.435 18.8295C213.2 19.1326 213.082 19.5114 213.082 19.9659C213.082 20.625 213.321 21.1288 213.798 21.4773C214.283 21.8182 214.897 21.9886 215.639 21.9886ZM235.244 25V7.54545H239.858V10.625H240.062C240.426 9.60227 241.032 8.79545 241.881 8.20454C242.729 7.61364 243.744 7.31818 244.926 7.31818C246.123 7.31818 247.142 7.61742 247.983 8.21591C248.824 8.80682 249.384 9.60985 249.665 10.625H249.847C250.203 9.625 250.847 8.82576 251.778 8.22727C252.718 7.62121 253.828 7.31818 255.108 7.31818C256.737 7.31818 258.059 7.83712 259.074 8.875C260.097 9.9053 260.608 11.3674 260.608 13.2614V25H255.778V14.2159C255.778 13.2462 255.521 12.5189 255.006 12.0341C254.491 11.5492 253.847 11.3068 253.074 11.3068C252.195 11.3068 251.509 11.5871 251.017 12.1477C250.525 12.7008 250.278 13.4318 250.278 14.3409V25H245.585V14.1136C245.585 13.2576 245.339 12.5758 244.847 12.0682C244.362 11.5606 243.722 11.3068 242.926 11.3068C242.388 11.3068 241.903 11.4432 241.472 11.7159C241.047 11.9811 240.71 12.3561 240.46 12.8409C240.21 13.3182 240.085 13.8788 240.085 14.5227V25H235.244ZM272.386 25.3409C270.591 25.3409 269.045 24.9773 267.75 24.25C266.462 23.5152 265.47 22.4773 264.773 21.1364C264.076 19.7879 263.727 18.1932 263.727 16.3523C263.727 14.5568 264.076 12.9811 264.773 11.625C265.47 10.2689 266.451 9.21212 267.716 8.45454C268.989 7.69697 270.481 7.31818 272.193 7.31818C273.345 7.31818 274.417 7.50379 275.409 7.875C276.409 8.23864 277.28 8.78788 278.023 9.52273C278.773 10.2576 279.356 11.1818 279.773 12.2955C280.189 13.4015 280.398 14.697 280.398 16.1818V17.5114H265.659V14.5114H275.841C275.841 13.8144 275.689 13.197 275.386 12.6591C275.083 12.1212 274.663 11.7008 274.125 11.3977C273.595 11.0871 272.977 10.9318 272.273 10.9318C271.538 10.9318 270.886 11.1023 270.318 11.4432C269.758 11.7765 269.318 12.2273 269 12.7955C268.682 13.3561 268.519 13.9811 268.511 14.6705V17.5227C268.511 18.3864 268.67 19.1326 268.989 19.7614C269.314 20.3902 269.773 20.875 270.364 21.2159C270.955 21.5568 271.655 21.7273 272.466 21.7273C273.004 21.7273 273.496 21.6515 273.943 21.5C274.39 21.3485 274.773 21.1212 275.091 20.8182C275.409 20.5152 275.652 20.1439 275.818 19.7045L280.295 20C280.068 21.0758 279.602 22.0152 278.898 22.8182C278.201 23.6136 277.299 24.2348 276.193 24.6818C275.095 25.1212 273.826 25.3409 272.386 25.3409ZM298.08 12.5227L293.648 12.7955C293.572 12.4167 293.409 12.0758 293.159 11.7727C292.909 11.4621 292.58 11.2159 292.17 11.0341C291.769 10.8447 291.288 10.75 290.727 10.75C289.977 10.75 289.345 10.9091 288.83 11.2273C288.314 11.5379 288.057 11.9545 288.057 12.4773C288.057 12.8939 288.223 13.2462 288.557 13.5341C288.89 13.822 289.462 14.053 290.273 14.2273L293.432 14.8636C295.129 15.2121 296.394 15.7727 297.227 16.5455C298.061 17.3182 298.477 18.3333 298.477 19.5909C298.477 20.7348 298.14 21.7386 297.466 22.6023C296.799 23.4659 295.883 24.1402 294.716 24.625C293.557 25.1023 292.22 25.3409 290.705 25.3409C288.394 25.3409 286.553 24.8598 285.182 23.8977C283.818 22.928 283.019 21.6098 282.784 19.9432L287.545 19.6932C287.689 20.3977 288.038 20.9356 288.591 21.3068C289.144 21.6705 289.852 21.8523 290.716 21.8523C291.564 21.8523 292.246 21.6894 292.761 21.3636C293.284 21.0303 293.549 20.6023 293.557 20.0795C293.549 19.6402 293.364 19.2803 293 19C292.636 18.7121 292.076 18.4924 291.318 18.3409L288.295 17.7386C286.591 17.3977 285.322 16.8068 284.489 15.9659C283.663 15.125 283.25 14.053 283.25 12.75C283.25 11.6288 283.553 10.6629 284.159 9.85227C284.773 9.04167 285.633 8.41667 286.739 7.97727C287.852 7.53788 289.155 7.31818 290.648 7.31818C292.852 7.31818 294.587 7.78409 295.852 8.71591C297.125 9.64773 297.867 10.9167 298.08 12.5227ZM301.526 25V7.54545H306.139V10.625H306.344C306.707 9.60227 307.313 8.79545 308.162 8.20454C309.01 7.61364 310.026 7.31818 311.207 7.31818C312.404 7.31818 313.423 7.61742 314.264 8.21591C315.105 8.80682 315.666 9.60985 315.946 10.625H316.128C316.484 9.625 317.128 8.82576 318.06 8.22727C318.999 7.62121 320.109 7.31818 321.389 7.31818C323.018 7.31818 324.34 7.83712 325.355 8.875C326.378 9.9053 326.889 11.3674 326.889 13.2614V25H322.06V14.2159C322.06 13.2462 321.802 12.5189 321.287 12.0341C320.772 11.5492 320.128 11.3068 319.355 11.3068C318.476 11.3068 317.791 11.5871 317.298 12.1477C316.806 12.7008 316.56 13.4318 316.56 14.3409V25H311.866V14.1136C311.866 13.2576 311.62 12.5758 311.128 12.0682C310.643 11.5606 310.003 11.3068 309.207 11.3068C308.67 11.3068 308.185 11.4432 307.753 11.7159C307.329 11.9811 306.991 12.3561 306.741 12.8409C306.491 13.3182 306.366 13.8788 306.366 14.5227V25H301.526ZM338.599 25.3409C336.834 25.3409 335.308 24.9659 334.02 24.2159C332.74 23.4583 331.751 22.4053 331.054 21.0568C330.357 19.7008 330.009 18.1288 330.009 16.3409C330.009 14.5379 330.357 12.9621 331.054 11.6136C331.751 10.2576 332.74 9.20454 334.02 8.45454C335.308 7.69697 336.834 7.31818 338.599 7.31818C340.365 7.31818 341.887 7.69697 343.168 8.45454C344.455 9.20454 345.448 10.2576 346.145 11.6136C346.842 12.9621 347.19 14.5379 347.19 16.3409C347.19 18.1288 346.842 19.7008 346.145 21.0568C345.448 22.4053 344.455 23.4583 343.168 24.2159C341.887 24.9659 340.365 25.3409 338.599 25.3409ZM338.622 21.5909C339.425 21.5909 340.096 21.3636 340.634 20.9091C341.171 20.447 341.577 19.8182 341.849 19.0227C342.13 18.2273 342.27 17.322 342.27 16.3068C342.27 15.2917 342.13 14.3864 341.849 13.5909C341.577 12.7955 341.171 12.1667 340.634 11.7045C340.096 11.2424 339.425 11.0114 338.622 11.0114C337.812 11.0114 337.13 11.2424 336.577 11.7045C336.031 12.1667 335.618 12.7955 335.338 13.5909C335.065 14.3864 334.929 15.2917 334.929 16.3068C334.929 17.322 335.065 18.2273 335.338 19.0227C335.618 19.8182 336.031 20.447 336.577 20.9091C337.13 21.3636 337.812 21.5909 338.622 21.5909ZM365.699 25.3409C363.903 25.3409 362.358 24.9773 361.062 24.25C359.775 23.5152 358.782 22.4773 358.085 21.1364C357.388 19.7879 357.04 18.1932 357.04 16.3523C357.04 14.5568 357.388 12.9811 358.085 11.625C358.782 10.2689 359.763 9.21212 361.028 8.45454C362.301 7.69697 363.794 7.31818 365.506 7.31818C366.657 7.31818 367.729 7.50379 368.722 7.875C369.722 8.23864 370.593 8.78788 371.335 9.52273C372.085 10.2576 372.669 11.1818 373.085 12.2955C373.502 13.4015 373.71 14.697 373.71 16.1818V17.5114H358.972V14.5114H369.153C369.153 13.8144 369.002 13.197 368.699 12.6591C368.396 12.1212 367.975 11.7008 367.438 11.3977C366.907 11.0871 366.29 10.9318 365.585 10.9318C364.85 10.9318 364.199 11.1023 363.631 11.4432C363.07 11.7765 362.631 12.2273 362.312 12.7955C361.994 13.3561 361.831 13.9811 361.824 14.6705V17.5227C361.824 18.3864 361.983 19.1326 362.301 19.7614C362.627 20.3902 363.085 20.875 363.676 21.2159C364.267 21.5568 364.968 21.7273 365.778 21.7273C366.316 21.7273 366.809 21.6515 367.256 21.5C367.703 21.3485 368.085 21.1212 368.403 20.8182C368.722 20.5152 368.964 20.1439 369.131 19.7045L373.608 20C373.381 21.0758 372.915 22.0152 372.21 22.8182C371.513 23.6136 370.612 24.2348 369.506 24.6818C368.407 25.1212 367.138 25.3409 365.699 25.3409ZM390.707 25.2841C389.382 25.2841 388.181 24.9432 387.105 24.2614C386.037 23.572 385.188 22.5606 384.56 21.2273C383.938 19.8864 383.628 18.2424 383.628 16.2955C383.628 14.2955 383.95 12.6326 384.594 11.3068C385.238 9.97348 386.094 8.97727 387.162 8.31818C388.238 7.65152 389.416 7.31818 390.696 7.31818C391.673 7.31818 392.488 7.48485 393.139 7.81818C393.798 8.14394 394.329 8.55303 394.73 9.04545C395.139 9.5303 395.45 10.0076 395.662 10.4773H395.81V1.72727H400.639V25H395.866V22.2045H395.662C395.435 22.6894 395.113 23.1705 394.696 23.6477C394.287 24.1174 393.753 24.5076 393.094 24.8182C392.442 25.1288 391.647 25.2841 390.707 25.2841ZM392.241 21.4318C393.022 21.4318 393.681 21.2197 394.219 20.7955C394.764 20.3636 395.181 19.7614 395.469 18.9886C395.764 18.2159 395.912 17.3106 395.912 16.2727C395.912 15.2348 395.768 14.3333 395.48 13.5682C395.192 12.803 394.776 12.2121 394.23 11.7955C393.685 11.3788 393.022 11.1705 392.241 11.1705C391.446 11.1705 390.776 11.3864 390.23 11.8182C389.685 12.25 389.272 12.8485 388.991 13.6136C388.711 14.3788 388.571 15.2652 388.571 16.2727C388.571 17.2879 388.711 18.1856 388.991 18.9659C389.279 19.7386 389.692 20.3447 390.23 20.7841C390.776 21.2159 391.446 21.4318 392.241 21.4318ZM412.574 25.3409C410.778 25.3409 409.233 24.9773 407.938 24.25C406.65 23.5152 405.657 22.4773 404.96 21.1364C404.263 19.7879 403.915 18.1932 403.915 16.3523C403.915 14.5568 404.263 12.9811 404.96 11.625C405.657 10.2689 406.638 9.21212 407.903 8.45454C409.176 7.69697 410.669 7.31818 412.381 7.31818C413.532 7.31818 414.604 7.50379 415.597 7.875C416.597 8.23864 417.468 8.78788 418.21 9.52273C418.96 10.2576 419.544 11.1818 419.96 12.2955C420.377 13.4015 420.585 14.697 420.585 16.1818V17.5114H405.847V14.5114H416.028C416.028 13.8144 415.877 13.197 415.574 12.6591C415.271 12.1212 414.85 11.7008 414.312 11.3977C413.782 11.0871 413.165 10.9318 412.46 10.9318C411.725 10.9318 411.074 11.1023 410.506 11.4432C409.945 11.7765 409.506 12.2273 409.188 12.7955C408.869 13.3561 408.706 13.9811 408.699 14.6705V17.5227C408.699 18.3864 408.858 19.1326 409.176 19.7614C409.502 20.3902 409.96 20.875 410.551 21.2159C411.142 21.5568 411.843 21.7273 412.653 21.7273C413.191 21.7273 413.684 21.6515 414.131 21.5C414.578 21.3485 414.96 21.1212 415.278 20.8182C415.597 20.5152 415.839 20.1439 416.006 19.7045L420.483 20C420.256 21.0758 419.79 22.0152 419.085 22.8182C418.388 23.6136 417.487 24.2348 416.381 24.6818C415.282 25.1212 414.013 25.3409 412.574 25.3409ZM414.551 5.45454L412.267 2.68182L409.983 5.45454H405.858V5.29545L410.46 0.295454H414.062L418.676 5.29545V5.45454H414.551ZM439.037 25.3409C437.272 25.3409 435.745 24.9659 434.457 24.2159C433.177 23.4583 432.188 22.4053 431.491 21.0568C430.795 19.7008 430.446 18.1288 430.446 16.3409C430.446 14.5379 430.795 12.9621 431.491 11.6136C432.188 10.2576 433.177 9.20454 434.457 8.45454C435.745 7.69697 437.272 7.31818 439.037 7.31818C440.802 7.31818 442.325 7.69697 443.605 8.45454C444.893 9.20454 445.885 10.2576 446.582 11.6136C447.279 12.9621 447.628 14.5379 447.628 16.3409C447.628 18.1288 447.279 19.7008 446.582 21.0568C445.885 22.4053 444.893 23.4583 443.605 24.2159C442.325 24.9659 440.802 25.3409 439.037 25.3409ZM439.06 21.5909C439.863 21.5909 440.533 21.3636 441.071 20.9091C441.609 20.447 442.014 19.8182 442.287 19.0227C442.567 18.2273 442.707 17.322 442.707 16.3068C442.707 15.2917 442.567 14.3864 442.287 13.5909C442.014 12.7955 441.609 12.1667 441.071 11.7045C440.533 11.2424 439.863 11.0114 439.06 11.0114C438.249 11.0114 437.567 11.2424 437.014 11.7045C436.469 12.1667 436.056 12.7955 435.776 13.5909C435.503 14.3864 435.366 15.2917 435.366 16.3068C435.366 17.322 435.503 18.2273 435.776 19.0227C436.056 19.8182 436.469 20.447 437.014 20.9091C437.567 21.3636 438.249 21.5909 439.06 21.5909ZM458.182 31.5455V7.54545H462.955V10.4773H463.17C463.383 10.0076 463.689 9.5303 464.091 9.04545C464.5 8.55303 465.03 8.14394 465.682 7.81818C466.341 7.48485 467.159 7.31818 468.136 7.31818C469.409 7.31818 470.583 7.65152 471.659 8.31818C472.735 8.97727 473.595 9.97348 474.239 11.3068C474.883 12.6326 475.205 14.2955 475.205 16.2955C475.205 18.2424 474.89 19.8864 474.261 21.2273C473.64 22.5606 472.792 23.572 471.716 24.2614C470.648 24.9432 469.451 25.2841 468.125 25.2841C467.186 25.2841 466.386 25.1288 465.727 24.8182C465.076 24.5076 464.542 24.1174 464.125 23.6477C463.708 23.1705 463.39 22.6894 463.17 22.2045H463.023V31.5455H458.182ZM462.92 16.2727C462.92 17.3106 463.064 18.2159 463.352 18.9886C463.64 19.7614 464.057 20.3636 464.602 20.7955C465.148 21.2197 465.811 21.4318 466.591 21.4318C467.379 21.4318 468.045 21.2159 468.591 20.7841C469.136 20.3447 469.549 19.7386 469.83 18.9659C470.117 18.1856 470.261 17.2879 470.261 16.2727C470.261 15.2652 470.121 14.3788 469.841 13.6136C469.561 12.8485 469.148 12.25 468.602 11.8182C468.057 11.3864 467.386 11.1705 466.591 11.1705C465.803 11.1705 465.136 11.3788 464.591 11.7955C464.053 12.2121 463.64 12.803 463.352 13.5682C463.064 14.3333 462.92 15.2348 462.92 16.2727ZM478.432 25V7.54545H483.125V10.5909H483.307C483.625 9.50758 484.159 8.68939 484.909 8.13636C485.659 7.57576 486.523 7.29545 487.5 7.29545C487.742 7.29545 488.004 7.31061 488.284 7.34091C488.564 7.37121 488.811 7.41288 489.023 7.46591V11.7614C488.795 11.6932 488.481 11.6326 488.08 11.5795C487.678 11.5265 487.311 11.5 486.977 11.5C486.265 11.5 485.629 11.6553 485.068 11.9659C484.515 12.2689 484.076 12.6932 483.75 13.2386C483.432 13.7841 483.273 14.4129 483.273 15.125V25H478.432ZM498.599 25.3409C496.834 25.3409 495.308 24.9659 494.02 24.2159C492.74 23.4583 491.751 22.4053 491.054 21.0568C490.357 19.7008 490.009 18.1288 490.009 16.3409C490.009 14.5379 490.357 12.9621 491.054 11.6136C491.751 10.2576 492.74 9.20454 494.02 8.45454C495.308 7.69697 496.834 7.31818 498.599 7.31818C500.365 7.31818 501.887 7.69697 503.168 8.45454C504.455 9.20454 505.448 10.2576 506.145 11.6136C506.842 12.9621 507.19 14.5379 507.19 16.3409C507.19 18.1288 506.842 19.7008 506.145 21.0568C505.448 22.4053 504.455 23.4583 503.168 24.2159C501.887 24.9659 500.365 25.3409 498.599 25.3409ZM498.622 21.5909C499.425 21.5909 500.096 21.3636 500.634 20.9091C501.171 20.447 501.577 19.8182 501.849 19.0227C502.13 18.2273 502.27 17.322 502.27 16.3068C502.27 15.2917 502.13 14.3864 501.849 13.5909C501.577 12.7955 501.171 12.1667 500.634 11.7045C500.096 11.2424 499.425 11.0114 498.622 11.0114C497.812 11.0114 497.13 11.2424 496.577 11.7045C496.031 12.1667 495.618 12.7955 495.338 13.5909C495.065 14.3864 494.929 15.2917 494.929 16.3068C494.929 17.322 495.065 18.2273 495.338 19.0227C495.618 19.8182 496.031 20.447 496.577 20.9091C497.13 21.3636 497.812 21.5909 498.622 21.5909ZM496.861 5.29545L499.27 0.125H503.747L500.281 5.29545H496.861ZM513.759 7.54545L516.963 13.6477L520.247 7.54545H525.213L520.156 16.2727L525.349 25H520.406L516.963 18.9659L513.577 25H508.577L513.759 16.2727L508.759 7.54545H513.759ZM528.088 25V7.54545H532.929V25H528.088ZM530.52 5.29545C529.8 5.29545 529.183 5.05682 528.668 4.57954C528.16 4.0947 527.906 3.51515 527.906 2.84091C527.906 2.17424 528.16 1.60227 528.668 1.125C529.183 0.640151 529.8 0.397726 530.52 0.397726C531.24 0.397726 531.853 0.640151 532.361 1.125C532.876 1.60227 533.134 2.17424 533.134 2.84091C533.134 3.51515 532.876 4.0947 532.361 4.57954C531.853 5.05682 531.24 5.29545 530.52 5.29545ZM536.807 25V7.54545H541.42V10.625H541.625C541.989 9.60227 542.595 8.79545 543.443 8.20454C544.292 7.61364 545.307 7.31818 546.489 7.31818C547.686 7.31818 548.705 7.61742 549.545 8.21591C550.386 8.80682 550.947 9.60985 551.227 10.625H551.409C551.765 9.625 552.409 8.82576 553.341 8.22727C554.28 7.62121 555.39 7.31818 556.67 7.31818C558.299 7.31818 559.621 7.83712 560.636 8.875C561.659 9.9053 562.17 11.3674 562.17 13.2614V25H557.341V14.2159C557.341 13.2462 557.083 12.5189 556.568 12.0341C556.053 11.5492 555.409 11.3068 554.636 11.3068C553.758 11.3068 553.072 11.5871 552.58 12.1477C552.087 12.7008 551.841 13.4318 551.841 14.3409V25H547.148V14.1136C547.148 13.2576 546.902 12.5758 546.409 12.0682C545.924 11.5606 545.284 11.3068 544.489 11.3068C543.951 11.3068 543.466 11.4432 543.034 11.7159C542.61 11.9811 542.273 12.3561 542.023 12.8409C541.773 13.3182 541.648 13.8788 541.648 14.5227V25H536.807ZM573.881 25.3409C572.116 25.3409 570.589 24.9659 569.301 24.2159C568.021 23.4583 567.032 22.4053 566.335 21.0568C565.638 19.7008 565.29 18.1288 565.29 16.3409C565.29 14.5379 565.638 12.9621 566.335 11.6136C567.032 10.2576 568.021 9.20454 569.301 8.45454C570.589 7.69697 572.116 7.31818 573.881 7.31818C575.646 7.31818 577.169 7.69697 578.449 8.45454C579.737 9.20454 580.729 10.2576 581.426 11.6136C582.123 12.9621 582.472 14.5379 582.472 16.3409C582.472 18.1288 582.123 19.7008 581.426 21.0568C580.729 22.4053 579.737 23.4583 578.449 24.2159C577.169 24.9659 575.646 25.3409 573.881 25.3409ZM573.903 21.5909C574.706 21.5909 575.377 21.3636 575.915 20.9091C576.453 20.447 576.858 19.8182 577.131 19.0227C577.411 18.2273 577.551 17.322 577.551 16.3068C577.551 15.2917 577.411 14.3864 577.131 13.5909C576.858 12.7955 576.453 12.1667 575.915 11.7045C575.377 11.2424 574.706 11.0114 573.903 11.0114C573.093 11.0114 572.411 11.2424 571.858 11.7045C571.313 12.1667 570.9 12.7955 570.619 13.5909C570.347 14.3864 570.21 15.2917 570.21 16.3068C570.21 17.322 570.347 18.2273 570.619 19.0227C570.9 19.8182 571.313 20.447 571.858 20.9091C572.411 21.3636 573.093 21.5909 573.903 21.5909ZM593.026 31.5455V7.54545H597.798V10.4773H598.014C598.226 10.0076 598.533 9.5303 598.935 9.04545C599.344 8.55303 599.874 8.14394 600.526 7.81818C601.185 7.48485 602.003 7.31818 602.98 7.31818C604.253 7.31818 605.427 7.65152 606.503 8.31818C607.579 8.97727 608.438 9.97348 609.082 11.3068C609.726 12.6326 610.048 14.2955 610.048 16.2955C610.048 18.2424 609.734 19.8864 609.105 21.2273C608.484 22.5606 607.635 23.572 606.56 24.2614C605.491 24.9432 604.295 25.2841 602.969 25.2841C602.029 25.2841 601.23 25.1288 600.571 24.8182C599.92 24.5076 599.385 24.1174 598.969 23.6477C598.552 23.1705 598.234 22.6894 598.014 22.2045H597.866V31.5455H593.026ZM597.764 16.2727C597.764 17.3106 597.908 18.2159 598.196 18.9886C598.484 19.7614 598.901 20.3636 599.446 20.7955C599.991 21.2197 600.654 21.4318 601.435 21.4318C602.223 21.4318 602.889 21.2159 603.435 20.7841C603.98 20.3447 604.393 19.7386 604.673 18.9659C604.961 18.1856 605.105 17.2879 605.105 16.2727C605.105 15.2652 604.965 14.3788 604.685 13.6136C604.404 12.8485 603.991 12.25 603.446 11.8182C602.901 11.3864 602.23 11.1705 601.435 11.1705C600.647 11.1705 599.98 11.3788 599.435 11.7955C598.897 12.2121 598.484 12.803 598.196 13.5682C597.908 14.3333 597.764 15.2348 597.764 16.2727ZM618.253 25.3295C617.139 25.3295 616.147 25.1364 615.276 24.75C614.404 24.3561 613.715 23.7765 613.207 23.0114C612.707 22.2386 612.457 21.2765 612.457 20.125C612.457 19.1553 612.635 18.3409 612.991 17.6818C613.348 17.0227 613.832 16.4924 614.446 16.0909C615.06 15.6894 615.757 15.3864 616.537 15.1818C617.325 14.9773 618.151 14.8333 619.014 14.75C620.029 14.6439 620.848 14.5455 621.469 14.4545C622.09 14.3561 622.541 14.2121 622.821 14.0227C623.101 13.8333 623.241 13.553 623.241 13.1818V13.1136C623.241 12.3939 623.014 11.8371 622.56 11.4432C622.113 11.0492 621.476 10.8523 620.651 10.8523C619.779 10.8523 619.086 11.0455 618.571 11.4318C618.056 11.8106 617.715 12.2879 617.548 12.8636L613.071 12.5C613.298 11.4394 613.745 10.5227 614.412 9.75C615.079 8.9697 615.938 8.37121 616.991 7.95454C618.052 7.5303 619.279 7.31818 620.673 7.31818C621.643 7.31818 622.571 7.43182 623.457 7.65909C624.351 7.88636 625.143 8.23864 625.832 8.71591C626.529 9.19318 627.079 9.80682 627.48 10.5568C627.882 11.2992 628.082 12.1894 628.082 13.2273V25H623.491V22.5795H623.355C623.075 23.125 622.7 23.6061 622.23 24.0227C621.76 24.4318 621.196 24.7538 620.537 24.9886C619.878 25.2159 619.116 25.3295 618.253 25.3295ZM619.639 21.9886C620.351 21.9886 620.98 21.8485 621.526 21.5682C622.071 21.2803 622.499 20.8939 622.81 20.4091C623.12 19.9242 623.276 19.375 623.276 18.7614V16.9091C623.124 17.0076 622.916 17.0985 622.651 17.1818C622.393 17.2576 622.101 17.3295 621.776 17.3977C621.45 17.4583 621.124 17.5152 620.798 17.5682C620.473 17.6136 620.177 17.6553 619.912 17.6932C619.344 17.7765 618.848 17.9091 618.423 18.0909C617.999 18.2727 617.67 18.5189 617.435 18.8295C617.2 19.1326 617.082 19.5114 617.082 19.9659C617.082 20.625 617.321 21.1288 617.798 21.4773C618.283 21.8182 618.897 21.9886 619.639 21.9886ZM646.361 12.5227L641.929 12.7955C641.853 12.4167 641.69 12.0758 641.44 11.7727C641.19 11.4621 640.861 11.2159 640.452 11.0341C640.05 10.8447 639.569 10.75 639.009 10.75C638.259 10.75 637.626 10.9091 637.111 11.2273C636.596 11.5379 636.338 11.9545 636.338 12.4773C636.338 12.8939 636.505 13.2462 636.838 13.5341C637.171 13.822 637.743 14.053 638.554 14.2273L641.713 14.8636C643.41 15.2121 644.675 15.7727 645.509 16.5455C646.342 17.3182 646.759 18.3333 646.759 19.5909C646.759 20.7348 646.421 21.7386 645.747 22.6023C645.08 23.4659 644.164 24.1402 642.997 24.625C641.838 25.1023 640.501 25.3409 638.986 25.3409C636.675 25.3409 634.834 24.8598 633.463 23.8977C632.099 22.928 631.3 21.6098 631.065 19.9432L635.827 19.6932C635.971 20.3977 636.319 20.9356 636.872 21.3068C637.425 21.6705 638.134 21.8523 638.997 21.8523C639.846 21.8523 640.527 21.6894 641.043 21.3636C641.565 21.0303 641.83 20.6023 641.838 20.0795C641.83 19.6402 641.645 19.2803 641.281 19C640.918 18.7121 640.357 18.4924 639.599 18.3409L636.577 17.7386C634.872 17.3977 633.603 16.8068 632.77 15.9659C631.944 15.125 631.531 14.053 631.531 12.75C631.531 11.6288 631.834 10.6629 632.44 9.85227C633.054 9.04167 633.914 8.41667 635.02 7.97727C636.134 7.53788 637.437 7.31818 638.929 7.31818C641.134 7.31818 642.868 7.78409 644.134 8.71591C645.406 9.64773 646.149 10.9167 646.361 12.5227ZM664.33 12.5227L659.898 12.7955C659.822 12.4167 659.659 12.0758 659.409 11.7727C659.159 11.4621 658.83 11.2159 658.42 11.0341C658.019 10.8447 657.538 10.75 656.977 10.75C656.227 10.75 655.595 10.9091 655.08 11.2273C654.564 11.5379 654.307 11.9545 654.307 12.4773C654.307 12.8939 654.473 13.2462 654.807 13.5341C655.14 13.822 655.712 14.053 656.523 14.2273L659.682 14.8636C661.379 15.2121 662.644 15.7727 663.477 16.5455C664.311 17.3182 664.727 18.3333 664.727 19.5909C664.727 20.7348 664.39 21.7386 663.716 22.6023C663.049 23.4659 662.133 24.1402 660.966 24.625C659.807 25.1023 658.47 25.3409 656.955 25.3409C654.644 25.3409 652.803 24.8598 651.432 23.8977C650.068 22.928 649.269 21.6098 649.034 19.9432L653.795 19.6932C653.939 20.3977 654.288 20.9356 654.841 21.3068C655.394 21.6705 656.102 21.8523 656.966 21.8523C657.814 21.8523 658.496 21.6894 659.011 21.3636C659.534 21.0303 659.799 20.6023 659.807 20.0795C659.799 19.6402 659.614 19.2803 659.25 19C658.886 18.7121 658.326 18.4924 657.568 18.3409L654.545 17.7386C652.841 17.3977 651.572 16.8068 650.739 15.9659C649.913 15.125 649.5 14.053 649.5 12.75C649.5 11.6288 649.803 10.6629 650.409 9.85227C651.023 9.04167 651.883 8.41667 652.989 7.97727C654.102 7.53788 655.405 7.31818 656.898 7.31818C659.102 7.31818 660.837 7.78409 662.102 8.71591C663.375 9.64773 664.117 10.9167 664.33 12.5227ZM675.662 25.3409C673.897 25.3409 672.37 24.9659 671.082 24.2159C669.802 23.4583 668.813 22.4053 668.116 21.0568C667.42 19.7008 667.071 18.1288 667.071 16.3409C667.071 14.5379 667.42 12.9621 668.116 11.6136C668.813 10.2576 669.802 9.20454 671.082 8.45454C672.37 7.69697 673.897 7.31818 675.662 7.31818C677.427 7.31818 678.95 7.69697 680.23 8.45454C681.518 9.20454 682.51 10.2576 683.207 11.6136C683.904 12.9621 684.253 14.5379 684.253 16.3409C684.253 18.1288 683.904 19.7008 683.207 21.0568C682.51 22.4053 681.518 23.4583 680.23 24.2159C678.95 24.9659 677.427 25.3409 675.662 25.3409ZM675.685 21.5909C676.488 21.5909 677.158 21.3636 677.696 20.9091C678.234 20.447 678.639 19.8182 678.912 19.0227C679.192 18.2273 679.332 17.322 679.332 16.3068C679.332 15.2917 679.192 14.3864 678.912 13.5909C678.639 12.7955 678.234 12.1667 677.696 11.7045C677.158 11.2424 676.488 11.0114 675.685 11.0114C674.874 11.0114 674.192 11.2424 673.639 11.7045C673.094 12.1667 672.681 12.7955 672.401 13.5909C672.128 14.3864 671.991 15.2917 671.991 16.3068C671.991 17.322 672.128 18.2273 672.401 19.0227C672.681 19.8182 673.094 20.447 673.639 20.9091C674.192 21.3636 674.874 21.5909 675.685 21.5909ZM701.239 25.2841C699.913 25.2841 698.712 24.9432 697.636 24.2614C696.568 23.572 695.72 22.5606 695.091 21.2273C694.47 19.8864 694.159 18.2424 694.159 16.2955C694.159 14.2955 694.481 12.6326 695.125 11.3068C695.769 9.97348 696.625 8.97727 697.693 8.31818C698.769 7.65152 699.947 7.31818 701.227 7.31818C702.205 7.31818 703.019 7.48485 703.67 7.81818C704.33 8.14394 704.86 8.55303 705.261 9.04545C705.67 9.5303 705.981 10.0076 706.193 10.4773H706.341V1.72727H711.17V25H706.398V22.2045H706.193C705.966 22.6894 705.644 23.1705 705.227 23.6477C704.818 24.1174 704.284 24.5076 703.625 24.8182C702.973 25.1288 702.178 25.2841 701.239 25.2841ZM702.773 21.4318C703.553 21.4318 704.212 21.2197 704.75 20.7955C705.295 20.3636 705.712 19.7614 706 18.9886C706.295 18.2159 706.443 17.3106 706.443 16.2727C706.443 15.2348 706.299 14.3333 706.011 13.5682C705.723 12.803 705.307 12.2121 704.761 11.7955C704.216 11.3788 703.553 11.1705 702.773 11.1705C701.977 11.1705 701.307 11.3864 700.761 11.8182C700.216 12.25 699.803 12.8485 699.523 13.6136C699.242 14.3788 699.102 15.2652 699.102 16.2727C699.102 17.2879 699.242 18.1856 699.523 18.9659C699.811 19.7386 700.223 20.3447 700.761 20.7841C701.307 21.2159 701.977 21.4318 702.773 21.4318ZM720.128 25.3295C719.014 25.3295 718.022 25.1364 717.151 24.75C716.279 24.3561 715.59 23.7765 715.082 23.0114C714.582 22.2386 714.332 21.2765 714.332 20.125C714.332 19.1553 714.51 18.3409 714.866 17.6818C715.223 17.0227 715.707 16.4924 716.321 16.0909C716.935 15.6894 717.632 15.3864 718.412 15.1818C719.2 14.9773 720.026 14.8333 720.889 14.75C721.904 14.6439 722.723 14.5455 723.344 14.4545C723.965 14.3561 724.416 14.2121 724.696 14.0227C724.976 13.8333 725.116 13.553 725.116 13.1818V13.1136C725.116 12.3939 724.889 11.8371 724.435 11.4432C723.988 11.0492 723.351 10.8523 722.526 10.8523C721.654 10.8523 720.961 11.0455 720.446 11.4318C719.931 11.8106 719.59 12.2879 719.423 12.8636L714.946 12.5C715.173 11.4394 715.62 10.5227 716.287 9.75C716.954 8.9697 717.813 8.37121 718.866 7.95454C719.927 7.5303 721.154 7.31818 722.548 7.31818C723.518 7.31818 724.446 7.43182 725.332 7.65909C726.226 7.88636 727.018 8.23864 727.707 8.71591C728.404 9.19318 728.954 9.80682 729.355 10.5568C729.757 11.2992 729.957 12.1894 729.957 13.2273V25H725.366V22.5795H725.23C724.95 23.125 724.575 23.6061 724.105 24.0227C723.635 24.4318 723.071 24.7538 722.412 24.9886C721.753 25.2159 720.991 25.3295 720.128 25.3295ZM721.514 21.9886C722.226 21.9886 722.855 21.8485 723.401 21.5682C723.946 21.2803 724.374 20.8939 724.685 20.4091C724.995 19.9242 725.151 19.375 725.151 18.7614V16.9091C724.999 17.0076 724.791 17.0985 724.526 17.1818C724.268 17.2576 723.976 17.3295 723.651 17.3977C723.325 17.4583 722.999 17.5152 722.673 17.5682C722.348 17.6136 722.052 17.6553 721.787 17.6932C721.219 17.7765 720.723 17.9091 720.298 18.0909C719.874 18.2727 719.545 18.5189 719.31 18.8295C719.075 19.1326 718.957 19.5114 718.957 19.9659C718.957 20.625 719.196 21.1288 719.673 21.4773C720.158 21.8182 720.772 21.9886 721.514 21.9886ZM755.642 12.5227L751.21 12.7955C751.134 12.4167 750.972 12.0758 750.722 11.7727C750.472 11.4621 750.142 11.2159 749.733 11.0341C749.331 10.8447 748.85 10.75 748.29 10.75C747.54 10.75 746.907 10.9091 746.392 11.2273C745.877 11.5379 745.619 11.9545 745.619 12.4773C745.619 12.8939 745.786 13.2462 746.119 13.5341C746.453 13.822 747.025 14.053 747.835 14.2273L750.994 14.8636C752.691 15.2121 753.956 15.7727 754.79 16.5455C755.623 17.3182 756.04 18.3333 756.04 19.5909C756.04 20.7348 755.703 21.7386 755.028 22.6023C754.362 23.4659 753.445 24.1402 752.278 24.625C751.119 25.1023 749.782 25.3409 748.267 25.3409C745.956 25.3409 744.116 24.8598 742.744 23.8977C741.381 22.928 740.581 21.6098 740.347 19.9432L745.108 19.6932C745.252 20.3977 745.6 20.9356 746.153 21.3068C746.706 21.6705 747.415 21.8523 748.278 21.8523C749.127 21.8523 749.809 21.6894 750.324 21.3636C750.847 21.0303 751.112 20.6023 751.119 20.0795C751.112 19.6402 750.926 19.2803 750.562 19C750.199 18.7121 749.638 18.4924 748.881 18.3409L745.858 17.7386C744.153 17.3977 742.884 16.8068 742.051 15.9659C741.225 15.125 740.812 14.053 740.812 12.75C740.812 11.6288 741.116 10.6629 741.722 9.85227C742.335 9.04167 743.195 8.41667 744.301 7.97727C745.415 7.53788 746.718 7.31818 748.21 7.31818C750.415 7.31818 752.15 7.78409 753.415 8.71591C754.688 9.64773 755.43 10.9167 755.642 12.5227ZM770.281 17.5682V7.54545H775.122V25H770.474V21.8295H770.293C769.899 22.8523 769.243 23.6742 768.327 24.2955C767.418 24.9167 766.308 25.2273 764.997 25.2273C763.83 25.2273 762.804 24.9621 761.918 24.4318C761.031 23.9015 760.338 23.1477 759.838 22.1705C759.346 21.1932 759.096 20.0227 759.088 18.6591V7.54545H763.929V17.7955C763.937 18.8258 764.213 19.6402 764.759 20.2386C765.304 20.8371 766.035 21.1364 766.952 21.1364C767.535 21.1364 768.08 21.0038 768.588 20.7386C769.096 20.4659 769.505 20.0644 769.815 19.5341C770.134 19.0038 770.289 18.3485 770.281 17.5682ZM783.972 25.3295C782.858 25.3295 781.866 25.1364 780.994 24.75C780.123 24.3561 779.434 23.7765 778.926 23.0114C778.426 22.2386 778.176 21.2765 778.176 20.125C778.176 19.1553 778.354 18.3409 778.71 17.6818C779.066 17.0227 779.551 16.4924 780.165 16.0909C780.778 15.6894 781.475 15.3864 782.256 15.1818C783.044 14.9773 783.869 14.8333 784.733 14.75C785.748 14.6439 786.566 14.5455 787.188 14.4545C787.809 14.3561 788.259 14.2121 788.54 14.0227C788.82 13.8333 788.96 13.553 788.96 13.1818V13.1136C788.96 12.3939 788.733 11.8371 788.278 11.4432C787.831 11.0492 787.195 10.8523 786.369 10.8523C785.498 10.8523 784.805 11.0455 784.29 11.4318C783.775 11.8106 783.434 12.2879 783.267 12.8636L778.79 12.5C779.017 11.4394 779.464 10.5227 780.131 9.75C780.797 8.9697 781.657 8.37121 782.71 7.95454C783.771 7.5303 784.998 7.31818 786.392 7.31818C787.362 7.31818 788.29 7.43182 789.176 7.65909C790.07 7.88636 790.862 8.23864 791.551 8.71591C792.248 9.19318 792.797 9.80682 793.199 10.5568C793.6 11.2992 793.801 12.1894 793.801 13.2273V25H789.21V22.5795H789.074C788.794 23.125 788.419 23.6061 787.949 24.0227C787.479 24.4318 786.915 24.7538 786.256 24.9886C785.597 25.2159 784.835 25.3295 783.972 25.3295ZM785.358 21.9886C786.07 21.9886 786.699 21.8485 787.244 21.5682C787.79 21.2803 788.218 20.8939 788.528 20.4091C788.839 19.9242 788.994 19.375 788.994 18.7614V16.9091C788.843 17.0076 788.634 17.0985 788.369 17.1818C788.112 17.2576 787.82 17.3295 787.494 17.3977C787.169 17.4583 786.843 17.5152 786.517 17.5682C786.191 17.6136 785.896 17.6553 785.631 17.6932C785.063 17.7765 784.566 17.9091 784.142 18.0909C783.718 18.2727 783.388 18.5189 783.153 18.8295C782.919 19.1326 782.801 19.5114 782.801 19.9659C782.801 20.625 783.04 21.1288 783.517 21.4773C784.002 21.8182 784.616 21.9886 785.358 21.9886ZM812.849 25.3409C811.062 25.3409 809.524 24.9621 808.236 24.2045C806.955 23.4394 805.971 22.3788 805.281 21.0227C804.599 19.6667 804.259 18.1061 804.259 16.3409C804.259 14.553 804.603 12.9848 805.293 11.6364C805.99 10.2803 806.978 9.22348 808.259 8.46591C809.539 7.70076 811.062 7.31818 812.827 7.31818C814.349 7.31818 815.683 7.5947 816.827 8.14773C817.971 8.70076 818.876 9.47727 819.543 10.4773C820.209 11.4773 820.577 12.6515 820.645 14H816.077C815.948 13.1288 815.607 12.428 815.054 11.8977C814.509 11.3598 813.793 11.0909 812.906 11.0909C812.156 11.0909 811.501 11.2955 810.94 11.7045C810.387 12.1061 809.955 12.6932 809.645 13.4659C809.334 14.2386 809.179 15.1742 809.179 16.2727C809.179 17.3864 809.33 18.3333 809.634 19.1136C809.944 19.8939 810.38 20.4886 810.94 20.8977C811.501 21.3068 812.156 21.5114 812.906 21.5114C813.459 21.5114 813.955 21.3977 814.395 21.1705C814.842 20.9432 815.209 20.6136 815.497 20.1818C815.793 19.7424 815.986 19.2159 816.077 18.6023H820.645C820.569 19.9356 820.205 21.1098 819.554 22.125C818.91 23.1326 818.02 23.9205 816.884 24.4886C815.747 25.0568 814.402 25.3409 812.849 25.3409ZM828.722 25.3295C827.608 25.3295 826.616 25.1364 825.744 24.75C824.873 24.3561 824.184 23.7765 823.676 23.0114C823.176 22.2386 822.926 21.2765 822.926 20.125C822.926 19.1553 823.104 18.3409 823.46 17.6818C823.816 17.0227 824.301 16.4924 824.915 16.0909C825.528 15.6894 826.225 15.3864 827.006 15.1818C827.794 14.9773 828.619 14.8333 829.483 14.75C830.498 14.6439 831.316 14.5455 831.938 14.4545C832.559 14.3561 833.009 14.2121 833.29 14.0227C833.57 13.8333 833.71 13.553 833.71 13.1818V13.1136C833.71 12.3939 833.483 11.8371 833.028 11.4432C832.581 11.0492 831.945 10.8523 831.119 10.8523C830.248 10.8523 829.555 11.0455 829.04 11.4318C828.525 11.8106 828.184 12.2879 828.017 12.8636L823.54 12.5C823.767 11.4394 824.214 10.5227 824.881 9.75C825.547 8.9697 826.407 8.37121 827.46 7.95454C828.521 7.5303 829.748 7.31818 831.142 7.31818C832.112 7.31818 833.04 7.43182 833.926 7.65909C834.82 7.88636 835.612 8.23864 836.301 8.71591C836.998 9.19318 837.547 9.80682 837.949 10.5568C838.35 11.2992 838.551 12.1894 838.551 13.2273V25H833.96V22.5795H833.824C833.544 23.125 833.169 23.6061 832.699 24.0227C832.229 24.4318 831.665 24.7538 831.006 24.9886C830.347 25.2159 829.585 25.3295 828.722 25.3295ZM830.108 21.9886C830.82 21.9886 831.449 21.8485 831.994 21.5682C832.54 21.2803 832.968 20.8939 833.278 20.4091C833.589 19.9242 833.744 19.375 833.744 18.7614V16.9091C833.593 17.0076 833.384 17.0985 833.119 17.1818C832.862 17.2576 832.57 17.3295 832.244 17.3977C831.919 17.4583 831.593 17.5152 831.267 17.5682C830.941 17.6136 830.646 17.6553 830.381 17.6932C829.813 17.7765 829.316 17.9091 828.892 18.0909C828.468 18.2727 828.138 18.5189 827.903 18.8295C827.669 19.1326 827.551 19.5114 827.551 19.9659C827.551 20.625 827.79 21.1288 828.267 21.4773C828.752 21.8182 829.366 21.9886 830.108 21.9886ZM842.307 25V7.54545H847V10.5909H847.182C847.5 9.50758 848.034 8.68939 848.784 8.13636C849.534 7.57576 850.398 7.29545 851.375 7.29545C851.617 7.29545 851.879 7.31061 852.159 7.34091C852.439 7.37121 852.686 7.41288 852.898 7.46591V11.7614C852.67 11.6932 852.356 11.6326 851.955 11.5795C851.553 11.5265 851.186 11.5 850.852 11.5C850.14 11.5 849.504 11.6553 848.943 11.9659C848.39 12.2689 847.951 12.6932 847.625 13.2386C847.307 13.7841 847.148 14.4129 847.148 15.125V25H842.307ZM855.401 25V7.54545H860.094V10.5909H860.276C860.594 9.50758 861.128 8.68939 861.878 8.13636C862.628 7.57576 863.491 7.29545 864.469 7.29545C864.711 7.29545 864.973 7.31061 865.253 7.34091C865.533 7.37121 865.779 7.41288 865.991 7.46591V11.7614C865.764 11.6932 865.45 11.6326 865.048 11.5795C864.647 11.5265 864.279 11.5 863.946 11.5C863.234 11.5 862.598 11.6553 862.037 11.9659C861.484 12.2689 861.045 12.6932 860.719 13.2386C860.401 13.7841 860.241 14.4129 860.241 15.125V25H855.401ZM875.636 25.3409C873.841 25.3409 872.295 24.9773 871 24.25C869.712 23.5152 868.72 22.4773 868.023 21.1364C867.326 19.7879 866.977 18.1932 866.977 16.3523C866.977 14.5568 867.326 12.9811 868.023 11.625C868.72 10.2689 869.701 9.21212 870.966 8.45454C872.239 7.69697 873.731 7.31818 875.443 7.31818C876.595 7.31818 877.667 7.50379 878.659 7.875C879.659 8.23864 880.53 8.78788 881.273 9.52273C882.023 10.2576 882.606 11.1818 883.023 12.2955C883.439 13.4015 883.648 14.697 883.648 16.1818V17.5114H868.909V14.5114H879.091C879.091 13.8144 878.939 13.197 878.636 12.6591C878.333 12.1212 877.913 11.7008 877.375 11.3977C876.845 11.0871 876.227 10.9318 875.523 10.9318C874.788 10.9318 874.136 11.1023 873.568 11.4432C873.008 11.7765 872.568 12.2273 872.25 12.7955C871.932 13.3561 871.769 13.9811 871.761 14.6705V17.5227C871.761 18.3864 871.92 19.1326 872.239 19.7614C872.564 20.3902 873.023 20.875 873.614 21.2159C874.205 21.5568 874.905 21.7273 875.716 21.7273C876.254 21.7273 876.746 21.6515 877.193 21.5C877.64 21.3485 878.023 21.1212 878.341 20.8182C878.659 20.5152 878.902 20.1439 879.068 19.7045L883.545 20C883.318 21.0758 882.852 22.0152 882.148 22.8182C881.451 23.6136 880.549 24.2348 879.443 24.6818C878.345 25.1212 877.076 25.3409 875.636 25.3409ZM886.807 25V7.54545H891.648V25H886.807ZM889.239 5.29545C888.519 5.29545 887.902 5.05682 887.386 4.57954C886.879 4.0947 886.625 3.51515 886.625 2.84091C886.625 2.17424 886.879 1.60227 887.386 1.125C887.902 0.640151 888.519 0.397726 889.239 0.397726C889.958 0.397726 890.572 0.640151 891.08 1.125C891.595 1.60227 891.852 2.17424 891.852 2.84091C891.852 3.51515 891.595 4.0947 891.08 4.57954C890.572 5.05682 889.958 5.29545 889.239 5.29545ZM895.526 25V7.54545H900.219V10.5909H900.401C900.719 9.50758 901.253 8.68939 902.003 8.13636C902.753 7.57576 903.616 7.29545 904.594 7.29545C904.836 7.29545 905.098 7.31061 905.378 7.34091C905.658 7.37121 905.904 7.41288 906.116 7.46591V11.7614C905.889 11.6932 905.575 11.6326 905.173 11.5795C904.772 11.5265 904.404 11.5 904.071 11.5C903.359 11.5 902.723 11.6553 902.162 11.9659C901.609 12.2689 901.17 12.6932 900.844 13.2386C900.526 13.7841 900.366 14.4129 900.366 15.125V25H895.526ZM913.097 25.3295C911.983 25.3295 910.991 25.1364 910.119 24.75C909.248 24.3561 908.559 23.7765 908.051 23.0114C907.551 22.2386 907.301 21.2765 907.301 20.125C907.301 19.1553 907.479 18.3409 907.835 17.6818C908.191 17.0227 908.676 16.4924 909.29 16.0909C909.903 15.6894 910.6 15.3864 911.381 15.1818C912.169 14.9773 912.994 14.8333 913.858 14.75C914.873 14.6439 915.691 14.5455 916.312 14.4545C916.934 14.3561 917.384 14.2121 917.665 14.0227C917.945 13.8333 918.085 13.553 918.085 13.1818V13.1136C918.085 12.3939 917.858 11.8371 917.403 11.4432C916.956 11.0492 916.32 10.8523 915.494 10.8523C914.623 10.8523 913.93 11.0455 913.415 11.4318C912.9 11.8106 912.559 12.2879 912.392 12.8636L907.915 12.5C908.142 11.4394 908.589 10.5227 909.256 9.75C909.922 8.9697 910.782 8.37121 911.835 7.95454C912.896 7.5303 914.123 7.31818 915.517 7.31818C916.487 7.31818 917.415 7.43182 918.301 7.65909C919.195 7.88636 919.987 8.23864 920.676 8.71591C921.373 9.19318 921.922 9.80682 922.324 10.5568C922.725 11.2992 922.926 12.1894 922.926 13.2273V25H918.335V22.5795H918.199C917.919 23.125 917.544 23.6061 917.074 24.0227C916.604 24.4318 916.04 24.7538 915.381 24.9886C914.722 25.2159 913.96 25.3295 913.097 25.3295ZM914.483 21.9886C915.195 21.9886 915.824 21.8485 916.369 21.5682C916.915 21.2803 917.343 20.8939 917.653 20.4091C917.964 19.9242 918.119 19.375 918.119 18.7614V16.9091C917.968 17.0076 917.759 17.0985 917.494 17.1818C917.237 17.2576 916.945 17.3295 916.619 17.3977C916.294 17.4583 915.968 17.5152 915.642 17.5682C915.316 17.6136 915.021 17.6553 914.756 17.6932C914.188 17.7765 913.691 17.9091 913.267 18.0909C912.843 18.2727 912.513 18.5189 912.278 18.8295C912.044 19.1326 911.926 19.5114 911.926 19.9659C911.926 20.625 912.165 21.1288 912.642 21.4773C913.127 21.8182 913.741 21.9886 914.483 21.9886Z" fill="#383838"/>
</svg>
