<svg width="707" height="32" viewBox="0 0 707 32" fill="none" xmlns="http://www.w3.org/2000/svg">
<path d="M0.725852 1.72727H6.79403L13.2031 17.3636H13.4759L19.8849 1.72727H25.9531V25H21.1804V9.85227H20.9872L14.9645 24.8864H11.7145L5.69176 9.79545H5.49858V25H0.725852V1.72727ZM34.8935 25.3295C33.7798 25.3295 32.7874 25.1364 31.9162 24.75C31.045 24.3561 30.3556 23.7765 29.848 23.0114C29.348 22.2386 29.098 21.2765 29.098 20.125C29.098 19.1553 29.276 18.3409 29.6321 17.6818C29.9882 17.0227 30.473 16.4924 31.0866 16.0909C31.7003 15.6894 32.3973 15.3864 33.1776 15.1818C33.9654 14.9773 34.7912 14.8333 35.6548 14.75C36.67 14.6439 37.4882 14.5455 38.1094 14.4545C38.7306 14.3561 39.1813 14.2121 39.4616 14.0227C39.742 13.8333 39.8821 13.553 39.8821 13.1818V13.1136C39.8821 12.3939 39.6548 11.8371 39.2003 11.4432C38.7533 11.0492 38.117 10.8523 37.2912 10.8523C36.42 10.8523 35.7268 11.0455 35.2116 11.4318C34.6965 11.8106 34.3556 12.2879 34.1889 12.8636L29.7116 12.5C29.9389 11.4394 30.3859 10.5227 31.0526 9.75C31.7192 8.9697 32.5791 8.37121 33.6321 7.95454C34.6927 7.5303 35.92 7.31818 37.3139 7.31818C38.2836 7.31818 39.2116 7.43182 40.098 7.65909C40.992 7.88636 41.7836 8.23864 42.473 8.71591C43.17 9.19318 43.7192 9.80682 44.1207 10.5568C44.5223 11.2992 44.723 12.1894 44.723 13.2273V25H40.1321V22.5795H39.9957C39.7154 23.125 39.3404 23.6061 38.8707 24.0227C38.401 24.4318 37.8366 24.7538 37.1776 24.9886C36.5185 25.2159 35.7571 25.3295 34.8935 25.3295ZM36.2798 21.9886C36.992 21.9886 37.6207 21.8485 38.1662 21.5682C38.7116 21.2803 39.1397 20.8939 39.4503 20.4091C39.7609 19.9242 39.9162 19.375 39.9162 18.7614V16.9091C39.7647 17.0076 39.5563 17.0985 39.2912 17.1818C39.0336 17.2576 38.742 17.3295 38.4162 17.3977C38.0904 17.4583 37.7647 17.5152 37.4389 17.5682C37.1132 17.6136 36.8177 17.6553 36.5526 17.6932C35.9844 17.7765 35.4882 17.9091 35.0639 18.0909C34.6397 18.2727 34.3101 18.5189 34.0753 18.8295C33.8404 19.1326 33.723 19.5114 33.723 19.9659C33.723 20.625 33.9616 21.1288 34.4389 21.4773C34.9238 21.8182 35.5374 21.9886 36.2798 21.9886ZM48.4787 25V7.54545H53.3196V25H48.4787ZM50.9105 5.29545C50.1908 5.29545 49.5734 5.05682 49.0582 4.57954C48.5507 4.0947 48.2969 3.51515 48.2969 2.84091C48.2969 2.17424 48.5507 1.60227 49.0582 1.125C49.5734 0.640151 50.1908 0.397726 50.9105 0.397726C51.6302 0.397726 52.2438 0.640151 52.7514 1.125C53.2666 1.60227 53.5241 2.17424 53.5241 2.84091C53.5241 3.51515 53.2666 4.0947 52.7514 4.57954C52.2438 5.05682 51.6302 5.29545 50.9105 5.29545ZM71.7202 12.5227L67.2884 12.7955C67.2126 12.4167 67.0497 12.0758 66.7997 11.7727C66.5497 11.4621 66.2202 11.2159 65.8111 11.0341C65.4096 10.8447 64.9285 10.75 64.3679 10.75C63.6179 10.75 62.9853 10.9091 62.4702 11.2273C61.955 11.5379 61.6974 11.9545 61.6974 12.4773C61.6974 12.8939 61.8641 13.2462 62.1974 13.5341C62.5308 13.822 63.1027 14.053 63.9134 14.2273L67.0724 14.8636C68.7694 15.2121 70.0346 15.7727 70.8679 16.5455C71.7012 17.3182 72.1179 18.3333 72.1179 19.5909C72.1179 20.7348 71.7808 21.7386 71.1065 22.6023C70.4399 23.4659 69.5232 24.1402 68.3565 24.625C67.1974 25.1023 65.8603 25.3409 64.3452 25.3409C62.0346 25.3409 60.1937 24.8598 58.8224 23.8977C57.4588 22.928 56.6596 21.6098 56.4247 19.9432L61.1861 19.6932C61.33 20.3977 61.6785 20.9356 62.2315 21.3068C62.7846 21.6705 63.4929 21.8523 64.3565 21.8523C65.205 21.8523 65.8868 21.6894 66.402 21.3636C66.9247 21.0303 67.1899 20.6023 67.1974 20.0795C67.1899 19.6402 67.0043 19.2803 66.6406 19C66.277 18.7121 65.7164 18.4924 64.9588 18.3409L61.9361 17.7386C60.2315 17.3977 58.9626 16.8068 58.1293 15.9659C57.3035 15.125 56.8906 14.053 56.8906 12.75C56.8906 11.6288 57.1937 10.6629 57.7997 9.85227C58.4134 9.04167 59.2732 8.41667 60.3793 7.97727C61.4929 7.53788 62.7959 7.31818 64.2884 7.31818C66.4929 7.31818 68.2277 7.78409 69.4929 8.71591C70.7656 9.64773 71.508 10.9167 71.7202 12.5227ZM89.0043 25.2841C87.6785 25.2841 86.4777 24.9432 85.402 24.2614C84.3338 23.572 83.4853 22.5606 82.8565 21.2273C82.2353 19.8864 81.9247 18.2424 81.9247 16.2955C81.9247 14.2955 82.2467 12.6326 82.8906 11.3068C83.5346 9.97348 84.3906 8.97727 85.4588 8.31818C86.5346 7.65152 87.7126 7.31818 88.9929 7.31818C89.9702 7.31818 90.7846 7.48485 91.4361 7.81818C92.0952 8.14394 92.6255 8.55303 93.027 9.04545C93.4361 9.5303 93.7467 10.0076 93.9588 10.4773H94.1065V1.72727H98.9361V25H94.1634V22.2045H93.9588C93.7315 22.6894 93.4096 23.1705 92.9929 23.6477C92.5838 24.1174 92.0497 24.5076 91.3906 24.8182C90.7391 25.1288 89.9437 25.2841 89.0043 25.2841ZM90.5384 21.4318C91.3187 21.4318 91.9777 21.2197 92.5156 20.7955C93.0611 20.3636 93.4777 19.7614 93.7656 18.9886C94.0611 18.2159 94.2088 17.3106 94.2088 16.2727C94.2088 15.2348 94.0649 14.3333 93.777 13.5682C93.4891 12.803 93.0724 12.2121 92.527 11.7955C91.9815 11.3788 91.3187 11.1705 90.5384 11.1705C89.7429 11.1705 89.0724 11.3864 88.527 11.8182C87.9815 12.25 87.5687 12.8485 87.2884 13.6136C87.008 14.3788 86.8679 15.2652 86.8679 16.2727C86.8679 17.2879 87.008 18.1856 87.2884 18.9659C87.5762 19.7386 87.9891 20.3447 88.527 20.7841C89.0724 21.2159 89.7429 21.4318 90.5384 21.4318ZM110.871 25.3409C109.075 25.3409 107.53 24.9773 106.234 24.25C104.946 23.5152 103.954 22.4773 103.257 21.1364C102.56 19.7879 102.212 18.1932 102.212 16.3523C102.212 14.5568 102.56 12.9811 103.257 11.625C103.954 10.2689 104.935 9.21212 106.2 8.45454C107.473 7.69697 108.965 7.31818 110.678 7.31818C111.829 7.31818 112.901 7.50379 113.893 7.875C114.893 8.23864 115.765 8.78788 116.507 9.52273C117.257 10.2576 117.84 11.1818 118.257 12.2955C118.674 13.4015 118.882 14.697 118.882 16.1818V17.5114H104.143V14.5114H114.325C114.325 13.8144 114.174 13.197 113.871 12.6591C113.568 12.1212 113.147 11.7008 112.609 11.3977C112.079 11.0871 111.462 10.9318 110.757 10.9318C110.022 10.9318 109.371 11.1023 108.803 11.4432C108.242 11.7765 107.803 12.2273 107.484 12.7955C107.166 13.3561 107.003 13.9811 106.996 14.6705V17.5227C106.996 18.3864 107.155 19.1326 107.473 19.7614C107.799 20.3902 108.257 20.875 108.848 21.2159C109.439 21.5568 110.14 21.7273 110.95 21.7273C111.488 21.7273 111.981 21.6515 112.428 21.5C112.875 21.3485 113.257 21.1212 113.575 20.8182C113.893 20.5152 114.136 20.1439 114.303 19.7045L118.78 20C118.553 21.0758 118.087 22.0152 117.382 22.8182C116.685 23.6136 115.784 24.2348 114.678 24.6818C113.579 25.1212 112.31 25.3409 110.871 25.3409ZM137.902 25.3182C136.296 25.3182 134.864 25.0227 133.607 24.4318C132.357 23.8409 131.364 23.0265 130.629 21.9886C129.894 20.9508 129.512 19.7614 129.482 18.4205H134.254C134.307 19.322 134.686 20.053 135.391 20.6136C136.095 21.1742 136.932 21.4545 137.902 21.4545C138.675 21.4545 139.357 21.2841 139.947 20.9432C140.546 20.5947 141.012 20.1136 141.345 19.5C141.686 18.8788 141.857 18.1667 141.857 17.3636C141.857 16.5455 141.682 15.8258 141.334 15.2045C140.993 14.5833 140.519 14.0985 139.913 13.75C139.307 13.4015 138.614 13.2235 137.834 13.2159C137.152 13.2159 136.489 13.3561 135.845 13.6364C135.209 13.9167 134.713 14.2992 134.357 14.7841L129.982 14L131.084 1.72727H145.311V5.75H135.141L134.538 11.5795H134.675C135.084 11.0038 135.701 10.5265 136.527 10.1477C137.353 9.76894 138.277 9.57955 139.3 9.57955C140.701 9.57955 141.951 9.90909 143.05 10.5682C144.148 11.2273 145.016 12.1326 145.652 13.2841C146.288 14.428 146.603 15.7462 146.595 17.2386C146.603 18.8068 146.239 20.2008 145.504 21.4205C144.777 22.6326 143.758 23.5871 142.447 24.2841C141.144 24.9735 139.629 25.3182 137.902 25.3182ZM159.152 25.5114C157.197 25.5038 155.516 25.0227 154.107 24.0682C152.705 23.1136 151.625 21.7311 150.868 19.9205C150.118 18.1098 149.747 15.9318 149.754 13.3864C149.754 10.8485 150.129 8.68561 150.879 6.89773C151.637 5.10985 152.716 3.75 154.118 2.81818C155.527 1.87879 157.205 1.40909 159.152 1.40909C161.099 1.40909 162.773 1.87879 164.175 2.81818C165.584 3.75758 166.667 5.12121 167.425 6.90909C168.182 8.68939 168.557 10.8485 168.55 13.3864C168.55 15.9394 168.171 18.1212 167.413 19.9318C166.663 21.7424 165.588 23.125 164.186 24.0795C162.785 25.0341 161.107 25.5114 159.152 25.5114ZM159.152 21.4318C160.485 21.4318 161.55 20.7614 162.345 19.4205C163.141 18.0795 163.535 16.0682 163.527 13.3864C163.527 11.6212 163.345 10.1515 162.982 8.97727C162.625 7.80303 162.118 6.92045 161.459 6.32954C160.807 5.73864 160.038 5.44318 159.152 5.44318C157.826 5.44318 156.766 6.10606 155.97 7.43182C155.175 8.75758 154.773 10.7424 154.766 13.3864C154.766 15.1742 154.944 16.6667 155.3 17.8636C155.663 19.053 156.175 19.947 156.834 20.5455C157.493 21.1364 158.266 21.4318 159.152 21.4318ZM181.183 25.5114C179.229 25.5038 177.547 25.0227 176.138 24.0682C174.736 23.1136 173.657 21.7311 172.899 19.9205C172.149 18.1098 171.778 15.9318 171.786 13.3864C171.786 10.8485 172.161 8.68561 172.911 6.89773C173.668 5.10985 174.748 3.75 176.149 2.81818C177.558 1.87879 179.236 1.40909 181.183 1.40909C183.13 1.40909 184.804 1.87879 186.206 2.81818C187.615 3.75758 188.698 5.12121 189.456 6.90909C190.214 8.68939 190.589 10.8485 190.581 13.3864C190.581 15.9394 190.202 18.1212 189.445 19.9318C188.695 21.7424 187.619 23.125 186.217 24.0795C184.816 25.0341 183.138 25.5114 181.183 25.5114ZM181.183 21.4318C182.517 21.4318 183.581 20.7614 184.376 19.4205C185.172 18.0795 185.566 16.0682 185.558 13.3864C185.558 11.6212 185.376 10.1515 185.013 8.97727C184.657 7.80303 184.149 6.92045 183.49 6.32954C182.839 5.73864 182.07 5.44318 181.183 5.44318C179.857 5.44318 178.797 6.10606 178.001 7.43182C177.206 8.75758 176.804 10.7424 176.797 13.3864C176.797 15.1742 176.975 16.6667 177.331 17.8636C177.695 19.053 178.206 19.947 178.865 20.5455C179.524 21.1364 180.297 21.4318 181.183 21.4318ZM206.518 25.3295C205.405 25.3295 204.412 25.1364 203.541 24.75C202.67 24.3561 201.981 23.7765 201.473 23.0114C200.973 22.2386 200.723 21.2765 200.723 20.125C200.723 19.1553 200.901 18.3409 201.257 17.6818C201.613 17.0227 202.098 16.4924 202.712 16.0909C203.325 15.6894 204.022 15.3864 204.803 15.1818C205.59 14.9773 206.416 14.8333 207.28 14.75C208.295 14.6439 209.113 14.5455 209.734 14.4545C210.356 14.3561 210.806 14.2121 211.087 14.0227C211.367 13.8333 211.507 13.553 211.507 13.1818V13.1136C211.507 12.3939 211.28 11.8371 210.825 11.4432C210.378 11.0492 209.742 10.8523 208.916 10.8523C208.045 10.8523 207.352 11.0455 206.837 11.4318C206.321 11.8106 205.981 12.2879 205.814 12.8636L201.337 12.5C201.564 11.4394 202.011 10.5227 202.678 9.75C203.344 8.9697 204.204 8.37121 205.257 7.95454C206.318 7.5303 207.545 7.31818 208.939 7.31818C209.909 7.31818 210.837 7.43182 211.723 7.65909C212.617 7.88636 213.409 8.23864 214.098 8.71591C214.795 9.19318 215.344 9.80682 215.746 10.5568C216.147 11.2992 216.348 12.1894 216.348 13.2273V25H211.757V22.5795H211.621C211.34 23.125 210.965 23.6061 210.496 24.0227C210.026 24.4318 209.462 24.7538 208.803 24.9886C208.143 25.2159 207.382 25.3295 206.518 25.3295ZM207.905 21.9886C208.617 21.9886 209.246 21.8485 209.791 21.5682C210.337 21.2803 210.765 20.8939 211.075 20.4091C211.386 19.9242 211.541 19.375 211.541 18.7614V16.9091C211.39 17.0076 211.181 17.0985 210.916 17.1818C210.659 17.2576 210.367 17.3295 210.041 17.3977C209.715 17.4583 209.39 17.5152 209.064 17.5682C208.738 17.6136 208.443 17.6553 208.178 17.6932C207.609 17.7765 207.113 17.9091 206.689 18.0909C206.265 18.2727 205.935 18.5189 205.7 18.8295C205.465 19.1326 205.348 19.5114 205.348 19.9659C205.348 20.625 205.587 21.1288 206.064 21.4773C206.549 21.8182 207.162 21.9886 207.905 21.9886ZM224.945 1.72727V25H220.104V1.72727H224.945ZM240.016 17.5682V7.54545H244.857V25H240.209V21.8295H240.027C239.633 22.8523 238.978 23.6742 238.061 24.2955C237.152 24.9167 236.042 25.2273 234.732 25.2273C233.565 25.2273 232.538 24.9621 231.652 24.4318C230.766 23.9015 230.072 23.1477 229.572 22.1705C229.08 21.1932 228.83 20.0227 228.822 18.6591V7.54545H233.663V17.7955C233.671 18.8258 233.947 19.6402 234.493 20.2386C235.038 20.8371 235.769 21.1364 236.686 21.1364C237.269 21.1364 237.815 21.0038 238.322 20.7386C238.83 20.4659 239.239 20.0644 239.55 19.5341C239.868 19.0038 240.023 18.3485 240.016 17.5682ZM253.57 14.9091V25H248.729V7.54545H253.342V10.625H253.547C253.933 9.60985 254.581 8.80682 255.49 8.21591C256.399 7.61742 257.501 7.31818 258.797 7.31818C260.009 7.31818 261.066 7.58333 261.967 8.11364C262.869 8.64394 263.57 9.40151 264.07 10.3864C264.57 11.3636 264.82 12.5303 264.82 13.8864V25H259.979V14.75C259.986 13.6818 259.714 12.8485 259.161 12.25C258.607 11.6439 257.846 11.3409 256.876 11.3409C256.225 11.3409 255.649 11.4811 255.149 11.7614C254.657 12.0417 254.27 12.4508 253.99 12.9886C253.717 13.5189 253.577 14.1591 253.57 14.9091ZM276.521 25.3409C274.756 25.3409 273.23 24.9659 271.942 24.2159C270.661 23.4583 269.673 22.4053 268.976 21.0568C268.279 19.7008 267.93 18.1288 267.93 16.3409C267.93 14.5379 268.279 12.9621 268.976 11.6136C269.673 10.2576 270.661 9.20454 271.942 8.45454C273.23 7.69697 274.756 7.31818 276.521 7.31818C278.286 7.31818 279.809 7.69697 281.089 8.45454C282.377 9.20454 283.37 10.2576 284.067 11.6136C284.764 12.9621 285.112 14.5379 285.112 16.3409C285.112 18.1288 284.764 19.7008 284.067 21.0568C283.37 22.4053 282.377 23.4583 281.089 24.2159C279.809 24.9659 278.286 25.3409 276.521 25.3409ZM276.544 21.5909C277.347 21.5909 278.018 21.3636 278.555 20.9091C279.093 20.447 279.499 19.8182 279.771 19.0227C280.052 18.2273 280.192 17.322 280.192 16.3068C280.192 15.2917 280.052 14.3864 279.771 13.5909C279.499 12.7955 279.093 12.1667 278.555 11.7045C278.018 11.2424 277.347 11.0114 276.544 11.0114C275.733 11.0114 275.052 11.2424 274.499 11.7045C273.953 12.1667 273.54 12.7955 273.26 13.5909C272.987 14.3864 272.851 15.2917 272.851 16.3068C272.851 17.322 272.987 18.2273 273.26 19.0227C273.54 19.8182 273.953 20.447 274.499 20.9091C275.052 21.3636 275.733 21.5909 276.544 21.5909ZM302.783 12.5227L298.351 12.7955C298.275 12.4167 298.112 12.0758 297.862 11.7727C297.612 11.4621 297.283 11.2159 296.874 11.0341C296.472 10.8447 295.991 10.75 295.43 10.75C294.68 10.75 294.048 10.9091 293.533 11.2273C293.018 11.5379 292.76 11.9545 292.76 12.4773C292.76 12.8939 292.927 13.2462 293.26 13.5341C293.593 13.822 294.165 14.053 294.976 14.2273L298.135 14.8636C299.832 15.2121 301.097 15.7727 301.93 16.5455C302.764 17.3182 303.18 18.3333 303.18 19.5909C303.18 20.7348 302.843 21.7386 302.169 22.6023C301.502 23.4659 300.586 24.1402 299.419 24.625C298.26 25.1023 296.923 25.3409 295.408 25.3409C293.097 25.3409 291.256 24.8598 289.885 23.8977C288.521 22.928 287.722 21.6098 287.487 19.9432L292.249 19.6932C292.393 20.3977 292.741 20.9356 293.294 21.3068C293.847 21.6705 294.555 21.8523 295.419 21.8523C296.268 21.8523 296.949 21.6894 297.464 21.3636C297.987 21.0303 298.252 20.6023 298.26 20.0795C298.252 19.6402 298.067 19.2803 297.703 19C297.339 18.7121 296.779 18.4924 296.021 18.3409L292.999 17.7386C291.294 17.3977 290.025 16.8068 289.192 15.9659C288.366 15.125 287.953 14.053 287.953 12.75C287.953 11.6288 288.256 10.6629 288.862 9.85227C289.476 9.04167 290.336 8.41667 291.442 7.97727C292.555 7.53788 293.858 7.31818 295.351 7.31818C297.555 7.31818 299.29 7.78409 300.555 8.71591C301.828 9.64773 302.571 10.9167 302.783 12.5227ZM313.635 7.54545H318.476V25.8636C318.476 27.2121 318.211 28.303 317.68 29.1364C317.15 29.9697 316.389 30.5795 315.396 30.9659C314.411 31.3523 313.233 31.5455 311.862 31.5455C311.696 31.5455 311.536 31.5417 311.385 31.5341C311.226 31.5341 311.059 31.5303 310.885 31.5227V27.7386C311.014 27.7462 311.127 27.75 311.226 27.75C311.317 27.7576 311.415 27.7614 311.521 27.7614C312.302 27.7614 312.847 27.5947 313.158 27.2614C313.476 26.9356 313.635 26.4432 313.635 25.7841V7.54545ZM316.044 5.29545C315.332 5.29545 314.718 5.05682 314.203 4.57954C313.688 4.0947 313.43 3.51515 313.43 2.84091C313.43 2.17424 313.688 1.60227 314.203 1.125C314.718 0.640151 315.332 0.397726 316.044 0.397726C316.771 0.397726 317.389 0.640151 317.896 1.125C318.411 1.60227 318.669 2.17424 318.669 2.84091C318.669 3.51515 318.411 4.0947 317.896 4.57954C317.389 5.05682 316.771 5.29545 316.044 5.29545ZM327.331 25.3295C326.217 25.3295 325.225 25.1364 324.354 24.75C323.482 24.3561 322.793 23.7765 322.286 23.0114C321.786 22.2386 321.536 21.2765 321.536 20.125C321.536 19.1553 321.714 18.3409 322.07 17.6818C322.426 17.0227 322.911 16.4924 323.524 16.0909C324.138 15.6894 324.835 15.3864 325.615 15.1818C326.403 14.9773 327.229 14.8333 328.092 14.75C329.107 14.6439 329.926 14.5455 330.547 14.4545C331.168 14.3561 331.619 14.2121 331.899 14.0227C332.179 13.8333 332.32 13.553 332.32 13.1818V13.1136C332.32 12.3939 332.092 11.8371 331.638 11.4432C331.191 11.0492 330.554 10.8523 329.729 10.8523C328.857 10.8523 328.164 11.0455 327.649 11.4318C327.134 11.8106 326.793 12.2879 326.626 12.8636L322.149 12.5C322.376 11.4394 322.823 10.5227 323.49 9.75C324.157 8.9697 325.017 8.37121 326.07 7.95454C327.13 7.5303 328.357 7.31818 329.751 7.31818C330.721 7.31818 331.649 7.43182 332.536 7.65909C333.429 7.88636 334.221 8.23864 334.911 8.71591C335.607 9.19318 336.157 9.80682 336.558 10.5568C336.96 11.2992 337.161 12.1894 337.161 13.2273V25H332.57V22.5795H332.433C332.153 23.125 331.778 23.6061 331.308 24.0227C330.839 24.4318 330.274 24.7538 329.615 24.9886C328.956 25.2159 328.195 25.3295 327.331 25.3295ZM328.717 21.9886C329.429 21.9886 330.058 21.8485 330.604 21.5682C331.149 21.2803 331.577 20.8939 331.888 20.4091C332.198 19.9242 332.354 19.375 332.354 18.7614V16.9091C332.202 17.0076 331.994 17.0985 331.729 17.1818C331.471 17.2576 331.179 17.3295 330.854 17.3977C330.528 17.4583 330.202 17.5152 329.876 17.5682C329.551 17.6136 329.255 17.6553 328.99 17.6932C328.422 17.7765 327.926 17.9091 327.501 18.0909C327.077 18.2727 326.748 18.5189 326.513 18.8295C326.278 19.1326 326.161 19.5114 326.161 19.9659C326.161 20.625 326.399 21.1288 326.876 21.4773C327.361 21.8182 327.975 21.9886 328.717 21.9886ZM328.195 5.29545L330.604 0.125H335.081L331.615 5.29545H328.195ZM348.322 25V7.54545H353.163V25H348.322ZM350.754 5.29545C350.035 5.29545 349.417 5.05682 348.902 4.57954C348.394 4.0947 348.141 3.51515 348.141 2.84091C348.141 2.17424 348.394 1.60227 348.902 1.125C349.417 0.640151 350.035 0.397726 350.754 0.397726C351.474 0.397726 352.088 0.640151 352.595 1.125C353.11 1.60227 353.368 2.17424 353.368 2.84091C353.368 3.51515 353.11 4.0947 352.595 4.57954C352.088 5.05682 351.474 5.29545 350.754 5.29545ZM361.882 14.9091V25H357.041V7.54545H361.655V10.625H361.859C362.246 9.60985 362.893 8.80682 363.803 8.21591C364.712 7.61742 365.814 7.31818 367.109 7.31818C368.321 7.31818 369.378 7.58333 370.28 8.11364C371.181 8.64394 371.882 9.40151 372.382 10.3864C372.882 11.3636 373.132 12.5303 373.132 13.8864V25H368.291V14.75C368.299 13.6818 368.026 12.8485 367.473 12.25C366.92 11.6439 366.159 11.3409 365.189 11.3409C364.537 11.3409 363.962 11.4811 363.462 11.7614C362.969 12.0417 362.583 12.4508 362.303 12.9886C362.03 13.5189 361.89 14.1591 361.882 14.9091ZM376.947 25V7.54545H381.788V25H376.947ZM379.379 5.29545C378.66 5.29545 378.042 5.05682 377.527 4.57954C377.019 4.0947 376.766 3.51515 376.766 2.84091C376.766 2.17424 377.019 1.60227 377.527 1.125C378.042 0.640151 378.66 0.397726 379.379 0.397726C380.099 0.397726 380.713 0.640151 381.22 1.125C381.735 1.60227 381.993 2.17424 381.993 2.84091C381.993 3.51515 381.735 4.0947 381.22 4.57954C380.713 5.05682 380.099 5.29545 379.379 5.29545ZM393.553 25.3409C391.765 25.3409 390.227 24.9621 388.939 24.2045C387.659 23.4394 386.674 22.3788 385.984 21.0227C385.303 19.6667 384.962 18.1061 384.962 16.3409C384.962 14.553 385.306 12.9848 385.996 11.6364C386.693 10.2803 387.681 9.22348 388.962 8.46591C390.242 7.70076 391.765 7.31818 393.53 7.31818C395.053 7.31818 396.386 7.5947 397.53 8.14773C398.674 8.70076 399.579 9.47727 400.246 10.4773C400.912 11.4773 401.28 12.6515 401.348 14H396.78C396.651 13.1288 396.31 12.428 395.757 11.8977C395.212 11.3598 394.496 11.0909 393.609 11.0909C392.859 11.0909 392.204 11.2955 391.643 11.7045C391.09 12.1061 390.659 12.6932 390.348 13.4659C390.037 14.2386 389.882 15.1742 389.882 16.2727C389.882 17.3864 390.034 18.3333 390.337 19.1136C390.647 19.8939 391.083 20.4886 391.643 20.8977C392.204 21.3068 392.859 21.5114 393.609 21.5114C394.162 21.5114 394.659 21.3977 395.098 21.1705C395.545 20.9432 395.912 20.6136 396.2 20.1818C396.496 19.7424 396.689 19.2159 396.78 18.6023H401.348C401.272 19.9356 400.909 21.1098 400.257 22.125C399.613 23.1326 398.723 23.9205 397.587 24.4886C396.45 25.0568 395.106 25.3409 393.553 25.3409ZM404.447 25V7.54545H409.288V25H404.447ZM406.879 5.29545C406.16 5.29545 405.542 5.05682 405.027 4.57954C404.519 4.0947 404.266 3.51515 404.266 2.84091C404.266 2.17424 404.519 1.60227 405.027 1.125C405.542 0.640151 406.16 0.397726 406.879 0.397726C407.599 0.397726 408.213 0.640151 408.72 1.125C409.235 1.60227 409.493 2.17424 409.493 2.84091C409.493 3.51515 409.235 4.0947 408.72 4.57954C408.213 5.05682 407.599 5.29545 406.879 5.29545ZM418.143 25.3295C417.03 25.3295 416.037 25.1364 415.166 24.75C414.295 24.3561 413.606 23.7765 413.098 23.0114C412.598 22.2386 412.348 21.2765 412.348 20.125C412.348 19.1553 412.526 18.3409 412.882 17.6818C413.238 17.0227 413.723 16.4924 414.337 16.0909C414.95 15.6894 415.647 15.3864 416.428 15.1818C417.215 14.9773 418.041 14.8333 418.905 14.75C419.92 14.6439 420.738 14.5455 421.359 14.4545C421.981 14.3561 422.431 14.2121 422.712 14.0227C422.992 13.8333 423.132 13.553 423.132 13.1818V13.1136C423.132 12.3939 422.905 11.8371 422.45 11.4432C422.003 11.0492 421.367 10.8523 420.541 10.8523C419.67 10.8523 418.977 11.0455 418.462 11.4318C417.946 11.8106 417.606 12.2879 417.439 12.8636L412.962 12.5C413.189 11.4394 413.636 10.5227 414.303 9.75C414.969 8.9697 415.829 8.37121 416.882 7.95454C417.943 7.5303 419.17 7.31818 420.564 7.31818C421.534 7.31818 422.462 7.43182 423.348 7.65909C424.242 7.88636 425.034 8.23864 425.723 8.71591C426.42 9.19318 426.969 9.80682 427.371 10.5568C427.772 11.2992 427.973 12.1894 427.973 13.2273V25H423.382V22.5795H423.246C422.965 23.125 422.59 23.6061 422.121 24.0227C421.651 24.4318 421.087 24.7538 420.428 24.9886C419.768 25.2159 419.007 25.3295 418.143 25.3295ZM419.53 21.9886C420.242 21.9886 420.871 21.8485 421.416 21.5682C421.962 21.2803 422.39 20.8939 422.7 20.4091C423.011 19.9242 423.166 19.375 423.166 18.7614V16.9091C423.015 17.0076 422.806 17.0985 422.541 17.1818C422.284 17.2576 421.992 17.3295 421.666 17.3977C421.34 17.4583 421.015 17.5152 420.689 17.5682C420.363 17.6136 420.068 17.6553 419.803 17.6932C419.234 17.7765 418.738 17.9091 418.314 18.0909C417.89 18.2727 417.56 18.5189 417.325 18.8295C417.09 19.1326 416.973 19.5114 416.973 19.9659C416.973 20.625 417.212 21.1288 417.689 21.4773C418.174 21.8182 418.787 21.9886 419.53 21.9886ZM431.729 25V7.54545H436.422V10.5909H436.604C436.922 9.50758 437.456 8.68939 438.206 8.13636C438.956 7.57576 439.82 7.29545 440.797 7.29545C441.039 7.29545 441.301 7.31061 441.581 7.34091C441.861 7.37121 442.107 7.41288 442.32 7.46591V11.7614C442.092 11.6932 441.778 11.6326 441.376 11.5795C440.975 11.5265 440.607 11.5 440.274 11.5C439.562 11.5 438.926 11.6553 438.365 11.9659C437.812 12.2689 437.373 12.6932 437.047 13.2386C436.729 13.7841 436.57 14.4129 436.57 15.125V25H431.729ZM449.3 25.3295C448.186 25.3295 447.194 25.1364 446.322 24.75C445.451 24.3561 444.762 23.7765 444.254 23.0114C443.754 22.2386 443.504 21.2765 443.504 20.125C443.504 19.1553 443.682 18.3409 444.038 17.6818C444.394 17.0227 444.879 16.4924 445.493 16.0909C446.107 15.6894 446.804 15.3864 447.584 15.1818C448.372 14.9773 449.197 14.8333 450.061 14.75C451.076 14.6439 451.894 14.5455 452.516 14.4545C453.137 14.3561 453.588 14.2121 453.868 14.0227C454.148 13.8333 454.288 13.553 454.288 13.1818V13.1136C454.288 12.3939 454.061 11.8371 453.607 11.4432C453.16 11.0492 452.523 10.8523 451.697 10.8523C450.826 10.8523 450.133 11.0455 449.618 11.4318C449.103 11.8106 448.762 12.2879 448.595 12.8636L444.118 12.5C444.345 11.4394 444.792 10.5227 445.459 9.75C446.125 8.9697 446.985 8.37121 448.038 7.95454C449.099 7.5303 450.326 7.31818 451.72 7.31818C452.69 7.31818 453.618 7.43182 454.504 7.65909C455.398 7.88636 456.19 8.23864 456.879 8.71591C457.576 9.19318 458.125 9.80682 458.527 10.5568C458.929 11.2992 459.129 12.1894 459.129 13.2273V25H454.538V22.5795H454.402C454.122 23.125 453.747 23.6061 453.277 24.0227C452.807 24.4318 452.243 24.7538 451.584 24.9886C450.925 25.2159 450.163 25.3295 449.3 25.3295ZM450.686 21.9886C451.398 21.9886 452.027 21.8485 452.572 21.5682C453.118 21.2803 453.546 20.8939 453.857 20.4091C454.167 19.9242 454.322 19.375 454.322 18.7614V16.9091C454.171 17.0076 453.963 17.0985 453.697 17.1818C453.44 17.2576 453.148 17.3295 452.822 17.3977C452.497 17.4583 452.171 17.5152 451.845 17.5682C451.519 17.6136 451.224 17.6553 450.959 17.6932C450.391 17.7765 449.894 17.9091 449.47 18.0909C449.046 18.2727 448.716 18.5189 448.482 18.8295C448.247 19.1326 448.129 19.5114 448.129 19.9659C448.129 20.625 448.368 21.1288 448.845 21.4773C449.33 21.8182 449.944 21.9886 450.686 21.9886ZM462.885 25V7.54545H467.499V10.625H467.703C468.067 9.60227 468.673 8.79545 469.521 8.20454C470.37 7.61364 471.385 7.31818 472.567 7.31818C473.764 7.31818 474.783 7.61742 475.624 8.21591C476.464 8.80682 477.025 9.60985 477.305 10.625H477.487C477.843 9.625 478.487 8.82576 479.419 8.22727C480.358 7.62121 481.468 7.31818 482.749 7.31818C484.377 7.31818 485.699 7.83712 486.714 8.875C487.737 9.9053 488.249 11.3674 488.249 13.2614V25H483.419V14.2159C483.419 13.2462 483.161 12.5189 482.646 12.0341C482.131 11.5492 481.487 11.3068 480.714 11.3068C479.836 11.3068 479.15 11.5871 478.658 12.1477C478.165 12.7008 477.919 13.4318 477.919 14.3409V25H473.226V14.1136C473.226 13.2576 472.98 12.5758 472.487 12.0682C472.002 11.5606 471.362 11.3068 470.567 11.3068C470.029 11.3068 469.544 11.4432 469.112 11.7159C468.688 11.9811 468.351 12.3561 468.101 12.8409C467.851 13.3182 467.726 13.8788 467.726 14.5227V25H462.885ZM514.001 12.5227L509.57 12.7955C509.494 12.4167 509.331 12.0758 509.081 11.7727C508.831 11.4621 508.501 11.2159 508.092 11.0341C507.691 10.8447 507.21 10.75 506.649 10.75C505.899 10.75 505.267 10.9091 504.751 11.2273C504.236 11.5379 503.979 11.9545 503.979 12.4773C503.979 12.8939 504.145 13.2462 504.479 13.5341C504.812 13.822 505.384 14.053 506.195 14.2273L509.354 14.8636C511.051 15.2121 512.316 15.7727 513.149 16.5455C513.982 17.3182 514.399 18.3333 514.399 19.5909C514.399 20.7348 514.062 21.7386 513.388 22.6023C512.721 23.4659 511.804 24.1402 510.638 24.625C509.479 25.1023 508.142 25.3409 506.626 25.3409C504.316 25.3409 502.475 24.8598 501.104 23.8977C499.74 22.928 498.941 21.6098 498.706 19.9432L503.467 19.6932C503.611 20.3977 503.96 20.9356 504.513 21.3068C505.066 21.6705 505.774 21.8523 506.638 21.8523C507.486 21.8523 508.168 21.6894 508.683 21.3636C509.206 21.0303 509.471 20.6023 509.479 20.0795C509.471 19.6402 509.286 19.2803 508.922 19C508.558 18.7121 507.998 18.4924 507.24 18.3409L504.217 17.7386C502.513 17.3977 501.244 16.8068 500.411 15.9659C499.585 15.125 499.172 14.053 499.172 12.75C499.172 11.6288 499.475 10.6629 500.081 9.85227C500.695 9.04167 501.554 8.41667 502.661 7.97727C503.774 7.53788 505.077 7.31818 506.57 7.31818C508.774 7.31818 510.509 7.78409 511.774 8.71591C513.047 9.64773 513.789 10.9167 514.001 12.5227ZM525.402 25.3409C523.607 25.3409 522.061 24.9773 520.766 24.25C519.478 23.5152 518.485 22.4773 517.788 21.1364C517.091 19.7879 516.743 18.1932 516.743 16.3523C516.743 14.5568 517.091 12.9811 517.788 11.625C518.485 10.2689 519.466 9.21212 520.732 8.45454C522.004 7.69697 523.497 7.31818 525.209 7.31818C526.36 7.31818 527.432 7.50379 528.425 7.875C529.425 8.23864 530.296 8.78788 531.038 9.52273C531.788 10.2576 532.372 11.1818 532.788 12.2955C533.205 13.4015 533.413 14.697 533.413 16.1818V17.5114H518.675V14.5114H528.857C528.857 13.8144 528.705 13.197 528.402 12.6591C528.099 12.1212 527.679 11.7008 527.141 11.3977C526.61 11.0871 525.993 10.9318 525.288 10.9318C524.554 10.9318 523.902 11.1023 523.334 11.4432C522.773 11.7765 522.334 12.2273 522.016 12.7955C521.697 13.3561 521.535 13.9811 521.527 14.6705V17.5227C521.527 18.3864 521.686 19.1326 522.004 19.7614C522.33 20.3902 522.788 20.875 523.379 21.2159C523.97 21.5568 524.671 21.7273 525.482 21.7273C526.019 21.7273 526.512 21.6515 526.959 21.5C527.406 21.3485 527.788 21.1212 528.107 20.8182C528.425 20.5152 528.667 20.1439 528.834 19.7045L533.311 20C533.084 21.0758 532.618 22.0152 531.913 22.8182C531.216 23.6136 530.315 24.2348 529.209 24.6818C528.11 25.1212 526.841 25.3409 525.402 25.3409ZM547.766 17.5682V7.54545H552.607V25H547.959V21.8295H547.777C547.383 22.8523 546.728 23.6742 545.811 24.2955C544.902 24.9167 543.792 25.2273 542.482 25.2273C541.315 25.2273 540.288 24.9621 539.402 24.4318C538.516 23.9015 537.822 23.1477 537.322 22.1705C536.83 21.1932 536.58 20.0227 536.572 18.6591V7.54545H541.413V17.7955C541.421 18.8258 541.697 19.6402 542.243 20.2386C542.788 20.8371 543.519 21.1364 544.436 21.1364C545.019 21.1364 545.565 21.0038 546.072 20.7386C546.58 20.4659 546.989 20.0644 547.3 19.5341C547.618 19.0038 547.773 18.3485 547.766 17.5682ZM571.001 12.5227L566.57 12.7955C566.494 12.4167 566.331 12.0758 566.081 11.7727C565.831 11.4621 565.501 11.2159 565.092 11.0341C564.691 10.8447 564.21 10.75 563.649 10.75C562.899 10.75 562.267 10.9091 561.751 11.2273C561.236 11.5379 560.979 11.9545 560.979 12.4773C560.979 12.8939 561.145 13.2462 561.479 13.5341C561.812 13.822 562.384 14.053 563.195 14.2273L566.354 14.8636C568.051 15.2121 569.316 15.7727 570.149 16.5455C570.982 17.3182 571.399 18.3333 571.399 19.5909C571.399 20.7348 571.062 21.7386 570.388 22.6023C569.721 23.4659 568.804 24.1402 567.638 24.625C566.479 25.1023 565.142 25.3409 563.626 25.3409C561.316 25.3409 559.475 24.8598 558.104 23.8977C556.74 22.928 555.941 21.6098 555.706 19.9432L560.467 19.6932C560.611 20.3977 560.96 20.9356 561.513 21.3068C562.066 21.6705 562.774 21.8523 563.638 21.8523C564.486 21.8523 565.168 21.6894 565.683 21.3636C566.206 21.0303 566.471 20.6023 566.479 20.0795C566.471 19.6402 566.286 19.2803 565.922 19C565.558 18.7121 564.998 18.4924 564.24 18.3409L561.217 17.7386C559.513 17.3977 558.244 16.8068 557.411 15.9659C556.585 15.125 556.172 14.053 556.172 12.75C556.172 11.6288 556.475 10.6629 557.081 9.85227C557.695 9.04167 558.554 8.41667 559.661 7.97727C560.774 7.53788 562.077 7.31818 563.57 7.31818C565.774 7.31818 567.509 7.78409 568.774 8.71591C570.047 9.64773 570.789 10.9167 571.001 12.5227ZM589.808 25.3409C588.013 25.3409 586.467 24.9773 585.172 24.25C583.884 23.5152 582.892 22.4773 582.195 21.1364C581.498 19.7879 581.149 18.1932 581.149 16.3523C581.149 14.5568 581.498 12.9811 582.195 11.625C582.892 10.2689 583.873 9.21212 585.138 8.45454C586.411 7.69697 587.903 7.31818 589.615 7.31818C590.767 7.31818 591.839 7.50379 592.831 7.875C593.831 8.23864 594.702 8.78788 595.445 9.52273C596.195 10.2576 596.778 11.1818 597.195 12.2955C597.611 13.4015 597.82 14.697 597.82 16.1818V17.5114H583.081V14.5114H593.263C593.263 13.8144 593.111 13.197 592.808 12.6591C592.505 12.1212 592.085 11.7008 591.547 11.3977C591.017 11.0871 590.399 10.9318 589.695 10.9318C588.96 10.9318 588.308 11.1023 587.74 11.4432C587.179 11.7765 586.74 12.2273 586.422 12.7955C586.104 13.3561 585.941 13.9811 585.933 14.6705V17.5227C585.933 18.3864 586.092 19.1326 586.411 19.7614C586.736 20.3902 587.195 20.875 587.786 21.2159C588.376 21.5568 589.077 21.7273 589.888 21.7273C590.426 21.7273 590.918 21.6515 591.365 21.5C591.812 21.3485 592.195 21.1212 592.513 20.8182C592.831 20.5152 593.073 20.1439 593.24 19.7045L597.717 20C597.49 21.0758 597.024 22.0152 596.32 22.8182C595.623 23.6136 594.721 24.2348 593.615 24.6818C592.517 25.1212 591.248 25.3409 589.808 25.3409ZM615.501 12.5227L611.07 12.7955C610.994 12.4167 610.831 12.0758 610.581 11.7727C610.331 11.4621 610.001 11.2159 609.592 11.0341C609.191 10.8447 608.71 10.75 608.149 10.75C607.399 10.75 606.767 10.9091 606.251 11.2273C605.736 11.5379 605.479 11.9545 605.479 12.4773C605.479 12.8939 605.645 13.2462 605.979 13.5341C606.312 13.822 606.884 14.053 607.695 14.2273L610.854 14.8636C612.551 15.2121 613.816 15.7727 614.649 16.5455C615.482 17.3182 615.899 18.3333 615.899 19.5909C615.899 20.7348 615.562 21.7386 614.888 22.6023C614.221 23.4659 613.304 24.1402 612.138 24.625C610.979 25.1023 609.642 25.3409 608.126 25.3409C605.816 25.3409 603.975 24.8598 602.604 23.8977C601.24 22.928 600.441 21.6098 600.206 19.9432L604.967 19.6932C605.111 20.3977 605.46 20.9356 606.013 21.3068C606.566 21.6705 607.274 21.8523 608.138 21.8523C608.986 21.8523 609.668 21.6894 610.183 21.3636C610.706 21.0303 610.971 20.6023 610.979 20.0795C610.971 19.6402 610.786 19.2803 610.422 19C610.058 18.7121 609.498 18.4924 608.74 18.3409L605.717 17.7386C604.013 17.3977 602.744 16.8068 601.911 15.9659C601.085 15.125 600.672 14.053 600.672 12.75C600.672 11.6288 600.975 10.6629 601.581 9.85227C602.195 9.04167 603.054 8.41667 604.161 7.97727C605.274 7.53788 606.577 7.31818 608.07 7.31818C610.274 7.31818 612.009 7.78409 613.274 8.71591C614.547 9.64773 615.289 10.9167 615.501 12.5227ZM628.232 7.54545V11.1818H617.72V7.54545H628.232ZM620.107 3.36364H624.947V19.6364C624.947 20.0833 625.016 20.4318 625.152 20.6818C625.288 20.9242 625.478 21.0947 625.72 21.1932C625.97 21.2917 626.258 21.3409 626.584 21.3409C626.811 21.3409 627.038 21.322 627.266 21.2841C627.493 21.2386 627.667 21.2045 627.788 21.1818L628.55 24.7841C628.307 24.8598 627.966 24.947 627.527 25.0455C627.088 25.1515 626.554 25.2159 625.925 25.2386C624.758 25.2841 623.735 25.1288 622.857 24.7727C621.985 24.4167 621.307 23.8636 620.822 23.1136C620.338 22.3636 620.099 21.4167 620.107 20.2727V3.36364ZM642.578 17.5682V7.54545H647.419V25H642.771V21.8295H642.589C642.196 22.8523 641.54 23.6742 640.624 24.2955C639.714 24.9167 638.605 25.2273 637.294 25.2273C636.127 25.2273 635.101 24.9621 634.214 24.4318C633.328 23.9015 632.635 23.1477 632.135 22.1705C631.643 21.1932 631.393 20.0227 631.385 18.6591V7.54545H636.226V17.7955C636.233 18.8258 636.51 19.6402 637.055 20.2386C637.601 20.8371 638.332 21.1364 639.249 21.1364C639.832 21.1364 640.377 21.0038 640.885 20.7386C641.393 20.4659 641.802 20.0644 642.112 19.5341C642.43 19.0038 642.586 18.3485 642.578 17.5682ZM657.723 25.2841C656.397 25.2841 655.196 24.9432 654.121 24.2614C653.053 23.572 652.204 22.5606 651.575 21.2273C650.954 19.8864 650.643 18.2424 650.643 16.2955C650.643 14.2955 650.965 12.6326 651.609 11.3068C652.253 9.97348 653.109 8.97727 654.178 8.31818C655.253 7.65152 656.431 7.31818 657.712 7.31818C658.689 7.31818 659.503 7.48485 660.155 7.81818C660.814 8.14394 661.344 8.55303 661.746 9.04545C662.155 9.5303 662.465 10.0076 662.678 10.4773H662.825V1.72727H667.655V25H662.882V22.2045H662.678C662.45 22.6894 662.128 23.1705 661.712 23.6477C661.303 24.1174 660.768 24.5076 660.109 24.8182C659.458 25.1288 658.662 25.2841 657.723 25.2841ZM659.257 21.4318C660.037 21.4318 660.696 21.2197 661.234 20.7955C661.78 20.3636 662.196 19.7614 662.484 18.9886C662.78 18.2159 662.928 17.3106 662.928 16.2727C662.928 15.2348 662.784 14.3333 662.496 13.5682C662.208 12.803 661.791 12.2121 661.246 11.7955C660.7 11.3788 660.037 11.1705 659.257 11.1705C658.462 11.1705 657.791 11.3864 657.246 11.8182C656.7 12.25 656.287 12.8485 656.007 13.6136C655.727 14.3788 655.587 15.2652 655.587 16.2727C655.587 17.2879 655.727 18.1856 656.007 18.9659C656.295 19.7386 656.708 20.3447 657.246 20.7841C657.791 21.2159 658.462 21.4318 659.257 21.4318ZM679.521 25.3409C677.756 25.3409 676.23 24.9659 674.942 24.2159C673.661 23.4583 672.673 22.4053 671.976 21.0568C671.279 19.7008 670.93 18.1288 670.93 16.3409C670.93 14.5379 671.279 12.9621 671.976 11.6136C672.673 10.2576 673.661 9.20454 674.942 8.45454C676.23 7.69697 677.756 7.31818 679.521 7.31818C681.286 7.31818 682.809 7.69697 684.089 8.45454C685.377 9.20454 686.37 10.2576 687.067 11.6136C687.764 12.9621 688.112 14.5379 688.112 16.3409C688.112 18.1288 687.764 19.7008 687.067 21.0568C686.37 22.4053 685.377 23.4583 684.089 24.2159C682.809 24.9659 681.286 25.3409 679.521 25.3409ZM679.544 21.5909C680.347 21.5909 681.018 21.3636 681.555 20.9091C682.093 20.447 682.499 19.8182 682.771 19.0227C683.052 18.2273 683.192 17.322 683.192 16.3068C683.192 15.2917 683.052 14.3864 682.771 13.5909C682.499 12.7955 682.093 12.1667 681.555 11.7045C681.018 11.2424 680.347 11.0114 679.544 11.0114C678.733 11.0114 678.052 11.2424 677.499 11.7045C676.953 12.1667 676.54 12.7955 676.26 13.5909C675.987 14.3864 675.851 15.2917 675.851 16.3068C675.851 17.322 675.987 18.2273 676.26 19.0227C676.54 19.8182 676.953 20.447 677.499 20.9091C678.052 21.3636 678.733 21.5909 679.544 21.5909ZM705.783 12.5227L701.351 12.7955C701.275 12.4167 701.112 12.0758 700.862 11.7727C700.612 11.4621 700.283 11.2159 699.874 11.0341C699.472 10.8447 698.991 10.75 698.43 10.75C697.68 10.75 697.048 10.9091 696.533 11.2273C696.018 11.5379 695.76 11.9545 695.76 12.4773C695.76 12.8939 695.927 13.2462 696.26 13.5341C696.593 13.822 697.165 14.053 697.976 14.2273L701.135 14.8636C702.832 15.2121 704.097 15.7727 704.93 16.5455C705.764 17.3182 706.18 18.3333 706.18 19.5909C706.18 20.7348 705.843 21.7386 705.169 22.6023C704.502 23.4659 703.586 24.1402 702.419 24.625C701.26 25.1023 699.923 25.3409 698.408 25.3409C696.097 25.3409 694.256 24.8598 692.885 23.8977C691.521 22.928 690.722 21.6098 690.487 19.9432L695.249 19.6932C695.393 20.3977 695.741 20.9356 696.294 21.3068C696.847 21.6705 697.555 21.8523 698.419 21.8523C699.268 21.8523 699.949 21.6894 700.464 21.3636C700.987 21.0303 701.252 20.6023 701.26 20.0795C701.252 19.6402 701.067 19.2803 700.703 19C700.339 18.7121 699.779 18.4924 699.021 18.3409L695.999 17.7386C694.294 17.3977 693.025 16.8068 692.192 15.9659C691.366 15.125 690.953 14.053 690.953 12.75C690.953 11.6288 691.256 10.6629 691.862 9.85227C692.476 9.04167 693.336 8.41667 694.442 7.97727C695.555 7.53788 696.858 7.31818 698.351 7.31818C700.555 7.31818 702.29 7.78409 703.555 8.71591C704.828 9.64773 705.571 10.9167 705.783 12.5227Z" fill="#EAECE5"/>
</svg>
